<!-- Generated by IcoMoon.io -->
<svg version="1.1" xmlns="http://www.w3.org/2000/svg" width="42" height="32" viewBox="0 0 42 32">
<title>company-overview</title>
<path fill="#243e87" d="M33.817 26.785l-25.986 0.069c-0.002-0-0.004-0-0.006-0-0.258 0-0.466 0.209-0.466 0.466s0.209 0.466 0.466 0.466c0.003 0 0.006-0 0.009-0h-0l25.986-0.069c0.002 0 0.004 0 0.006 0 0.258 0 0.466-0.209 0.466-0.466s-0.209-0.466-0.466-0.466c-0.003 0-0.006 0-0.009 0h0z"></path>
<path fill="#243e87" d="M33.817 22.638l-25.986 0.069c-0.002-0-0.004-0-0.006-0-0.258 0-0.466 0.209-0.466 0.466s0.209 0.466 0.466 0.466c0.003 0 0.006-0 0.009-0h-0l25.986-0.069c0.002 0 0.004 0 0.006 0 0.258 0 0.466-0.209 0.466-0.466s-0.209-0.466-0.466-0.466c-0.003 0-0.006 0-0.009 0h0z"></path>
<path fill="#243e87" d="M33.817 18.49l-25.986 0.069c-0.002-0-0.004-0-0.006-0-0.258 0-0.466 0.209-0.466 0.466s0.209 0.466 0.466 0.466c0.003 0 0.006-0 0.009-0h-0l25.986-0.069c0.002 0 0.004 0 0.006 0 0.258 0 0.466-0.209 0.466-0.466s-0.209-0.466-0.466-0.466c-0.003 0-0.006 0-0.009 0h0z"></path>
<path fill="#243e87" d="M34.723 6.186c0 0.442-0.359 0.801-0.801 0.801v0c-0 0-0 0-0 0-0.442 0-0.801-0.358-0.801-0.801v-0c0-0 0-0 0-0 0-0.442 0.358-0.801 0.8-0.801h0c0 0 0.001 0 0.001 0 0.442 0 0.801 0.358 0.801 0.8v0l-0.801 0.001z"></path>
<path fill="#243e87" d="M32.263 8.611c0 0.442-0.359 0.801-0.801 0.801v0c-0 0-0 0-0 0-0.442 0-0.801-0.358-0.801-0.801v-0c0-0 0-0 0-0.001 0-0.442 0.358-0.801 0.8-0.801h0c0 0 0 0 0.001 0 0.442 0 0.801 0.358 0.801 0.8v0l-0.801 0.001z"></path>
<path fill="#243e87" d="M30.288 7.225c0 0.442-0.359 0.801-0.801 0.801v0c-0 0-0 0-0 0-0.442 0-0.801-0.358-0.801-0.801v-0c0-0 0-0 0-0 0-0.442 0.358-0.801 0.8-0.801h0c0 0 0 0 0.001 0 0.442 0 0.801 0.358 0.801 0.8v0l-0.801 0.001z"></path>
<path fill="#243e87" d="M33.857 6.12l-2.405 2.371-1.974-1.385-2.203 2.097 0.128 0.134 2.093-1.992 1.976 1.387 2.515-2.479z"></path>
<path fill="#243e87" d="M27.745 9.68c0 0.442-0.359 0.801-0.801 0.801v0c-0 0-0 0-0 0-0.442 0-0.801-0.358-0.801-0.801v-0c0-0 0-0 0-0.001 0-0.442 0.358-0.801 0.8-0.801h0c0 0 0 0 0.001 0 0.442 0 0.801 0.358 0.801 0.8v0l-0.801 0.001z"></path>
<path fill="#243e87" d="M23.967 4.622v11.101h13.81v-0.463h-13.348v-10.639z"></path>
<path fill="#243e87" d="M12.341 8.472c0 1.916-1.553 3.469-3.468 3.469h-0c-0 0-0.001 0-0.001 0-1.915 0-3.468-1.552-3.469-3.467v-0c0-0.001 0-0.001 0-0.002 0-1.915 1.551-3.467 3.466-3.469h0c0.001 0 0.002 0 0.003 0 1.914 0 3.467 1.551 3.469 3.464v0l-3.469 0.004z"></path>
<path fill="#243e87" d="M5.829 0c-3.213 0-5.829 2.462-5.829 5.531v20.937c0 3.069 2.616 5.531 5.829 5.531h30.338c3.213 0 5.829-2.462 5.829-5.531v-20.937c0-3.069-2.616-5.531-5.829-5.531zM5.829 0.686h30.338c2.865 0 5.143 2.166 5.143 4.845v20.937c0 2.68-2.278 4.845-5.143 4.845h-30.338c-2.865 0-5.143-2.165-5.143-4.845v-20.937c0-2.679 2.278-4.845 5.143-4.845z"></path>
<path fill="#243e87" d="M26.054 12.98h1.663v2.356h-1.663v-2.356z"></path>
<path fill="#243e87" d="M33.068 9.308h1.663v6.029h-1.663v-6.029z"></path>
<path fill="#243e87" d="M28.392 10.486h1.663v4.851h-1.663v-4.851z"></path>
<path fill="#243e87" d="M30.73 12.045h1.663v3.292h-1.663v-3.292z"></path>
</svg>
