<!-- Generated by IcoMoon.io -->
<svg version="1.1" xmlns="http://www.w3.org/2000/svg" width="32" height="32" viewBox="0 0 32 32">
<title>management-team</title>
<path fill="#243e87" d="M16 2.345c-1.973 0-3.572 1.599-3.572 3.572v0c0.002 1.056 0.461 2.005 1.191 2.658l0.003 0.003c-1.195 0.298-2.182 0.852-2.923 1.806-1.113 1.433-1.251 5.168-1.251 5.168h13.101c0 0 0.121-3.791-1.125-5.168-0.77-0.851-1.787-1.491-3.020-1.83 0.718-0.655 1.167-1.593 1.168-2.637v-0c0-1.973-1.599-3.572-3.572-3.572 0 0 0 0 0 0v0zM16 2.907c0 0 0 0 0 0 1.663 0 3.010 1.348 3.010 3.010v0c-0.001 1.387-0.939 2.554-2.215 2.903l-0.021 0.005c1.771 0.106 3.18 0.769 4.155 1.782 1.133 1.177 1.023 4.417 1.023 4.417h-11.908c0 0 0.125-3.193 1.137-4.417 0.96-1.162 2.373-1.63 4.14-1.76-1.345-0.319-2.331-1.509-2.332-2.93v-0c0-1.663 1.348-3.010 3.010-3.010v0z"></path>
<path fill="#243e87" d="M10.624 14.48h10.75c0 0 0.099-2.674-0.923-3.645-0.996-0.946-2.494-1.523-4.4-1.481s-3.417 0.393-4.4 1.481c-0.913 1.011-1.026 3.645-1.026 3.645z"></path>
<path fill="#243e87" d="M18.582 5.918c0 1.426-1.156 2.582-2.582 2.582s-2.582-1.156-2.582-2.582c0-1.426 1.156-2.582 2.582-2.582s2.582 1.156 2.582 2.582z"></path>
<path fill="#243e87" d="M25.040 16.447c-1.973 0-3.572 1.599-3.572 3.572v0c0.002 1.056 0.461 2.005 1.191 2.658l0.003 0.003c-1.195 0.298-2.182 0.852-2.923 1.806-1.113 1.433-1.25 5.168-1.25 5.168h13.101c0 0 0.121-3.791-1.125-5.168-0.77-0.851-1.787-1.491-3.020-1.83 0.718-0.655 1.167-1.593 1.168-2.637v-0c0-1.973-1.599-3.572-3.572-3.572 0 0 0 0 0 0v0zM25.040 17.009c0 0 0 0 0 0 1.663 0 3.010 1.348 3.010 3.010v0c-0.001 1.387-0.939 2.554-2.215 2.903l-0.021 0.005c1.771 0.106 3.18 0.769 4.155 1.782 1.133 1.177 1.023 4.417 1.023 4.417h-11.908c0 0 0.125-3.193 1.137-4.417 0.96-1.162 2.373-1.63 4.14-1.76-1.345-0.319-2.331-1.509-2.332-2.93v-0c0-1.663 1.348-3.010 3.010-3.010v0z"></path>
<path fill="#243e87" d="M19.664 28.582h10.75c0 0 0.099-2.674-0.923-3.645-0.996-0.946-2.494-1.523-4.4-1.481s-3.417 0.392-4.4 1.481c-0.913 1.011-1.026 3.645-1.026 3.645z"></path>
<path fill="#243e87" d="M27.623 20.019c0 1.426-1.156 2.582-2.582 2.582s-2.582-1.156-2.582-2.582c0-1.426 1.156-2.582 2.582-2.582s2.582 1.156 2.582 2.582z"></path>
<path fill="#243e87" d="M6.96 16.447c-1.973 0-3.572 1.599-3.572 3.572v0c0.002 1.056 0.461 2.005 1.191 2.658l0.003 0.003c-1.195 0.298-2.182 0.852-2.923 1.806-1.113 1.433-1.25 5.168-1.25 5.168h13.101c0 0 0.121-3.791-1.125-5.168-0.77-0.851-1.787-1.491-3.020-1.83 0.718-0.655 1.167-1.593 1.168-2.637v-0c0-1.973-1.599-3.572-3.572-3.572 0 0 0 0 0 0v0zM6.96 17.009c0 0 0 0 0 0 1.663 0 3.010 1.348 3.010 3.010v0c-0.001 1.387-0.939 2.554-2.215 2.903l-0.021 0.005c1.771 0.106 3.18 0.769 4.155 1.782 1.133 1.177 1.023 4.417 1.023 4.417h-11.908c0 0 0.125-3.193 1.137-4.417 0.96-1.162 2.373-1.63 4.14-1.76-1.345-0.319-2.331-1.509-2.332-2.93v-0c0-1.663 1.348-3.010 3.010-3.010v0z"></path>
<path fill="#243e87" d="M1.584 28.582h10.75c0 0 0.099-2.674-0.923-3.645-0.996-0.946-2.494-1.523-4.4-1.481s-3.417 0.392-4.4 1.481c-0.913 1.011-1.026 3.645-1.026 3.645z"></path>
<path fill="#243e87" d="M9.542 20.019c0 1.426-1.156 2.582-2.582 2.582s-2.582-1.156-2.582-2.582c0-1.426 1.156-2.582 2.582-2.582s2.582 1.156 2.582 2.582z"></path>
<path fill="#243e87" d="M10.924 7.546c-0.291 0.157-0.52 0.293-0.743 0.438l0.043-0.026 0.402 0.696c0.184-0.119 0.414-0.253 0.65-0.378l0.055-0.026z"></path>
<path fill="#243e87" d="M21.075 7.546l-0.407 0.704c0.288 0.153 0.518 0.289 0.741 0.434l-0.039-0.024 0.41-0.71c-0.18-0.116-0.411-0.25-0.646-0.376l-0.058-0.029z"></path>
<path fill="#243e87" d="M22.667 8.572l-0.528 0.629c0.232 0.18 0.435 0.351 0.631 0.529l-0.008-0.007 0.523-0.623c-0.187-0.173-0.388-0.346-0.596-0.511l-0.022-0.017z"></path>
<path fill="#243e87" d="M9.338 8.578c-0.233 0.181-0.436 0.352-0.632 0.53l0.009-0.008 0.522 0.622c0.188-0.174 0.389-0.346 0.598-0.51l0.021-0.016z"></path>
<path fill="#243e87" d="M7.95 9.865c-0.173 0.187-0.346 0.388-0.511 0.596l-0.017 0.022 0.629 0.527c0.18-0.232 0.351-0.435 0.529-0.631l-0.007 0.008z"></path>
<path fill="#243e87" d="M24.050 9.865l-0.622 0.522c0.174 0.188 0.346 0.39 0.51 0.598l0.016 0.021 0.617-0.518c-0.181-0.233-0.352-0.436-0.53-0.632l0.008 0.009z"></path>
<path fill="#243e87" d="M6.801 11.369c-0.116 0.18-0.25 0.411-0.376 0.646l-0.029 0.059 0.704 0.407c0.153-0.288 0.289-0.518 0.434-0.741l-0.024 0.039z"></path>
<path fill="#243e87" d="M25.192 11.373l-0.696 0.402c0.119 0.184 0.253 0.414 0.378 0.65l0.026 0.055 0.703-0.406c-0.157-0.291-0.293-0.52-0.438-0.743l0.026 0.043z"></path>
<path fill="#243e87" d="M26.062 13.055l-0.765 0.279c0.078 0.182 0.171 0.436 0.254 0.694l0.020 0.071 0.77-0.28c-0.107-0.334-0.202-0.587-0.305-0.835l0.027 0.072z"></path>
<path fill="#243e87" d="M5.939 13.056c-0.075 0.177-0.168 0.431-0.251 0.689l-0.021 0.077 0.756 0.275c0.105-0.329 0.199-0.582 0.303-0.83l-0.025 0.066z"></path>
<path fill="#243e87" d="M26.62 14.864l-0.808 0.142c0.048 0.2 0.097 0.472 0.136 0.747l0.006 0.053 0.8-0.141c-0.043-0.331-0.090-0.604-0.147-0.873l0.013 0.071z"></path>
<path fill="#243e87" d="M5.387 14.866c-0.046 0.196-0.096 0.467-0.135 0.742l-0.007 0.058 0.8 0.141c0.042-0.327 0.090-0.599 0.148-0.868l-0.012 0.066z"></path>
<path fill="#243e87" d="M18.143 26.963c-0.2 0.048-0.472 0.097-0.747 0.136l-0.053 0.006 0.141 0.8c0.331-0.043 0.604-0.090 0.872-0.147l-0.071 0.013z"></path>
<path fill="#243e87" d="M13.856 26.969l-0.14 0.794c0.195 0.046 0.467 0.096 0.742 0.135l0.058 0.007 0.141-0.8c-0.327-0.042-0.599-0.090-0.868-0.148l0.066 0.012z"></path>
<path fill="#243e87" d="M15.594 27.186v0.819c0.113 0.007 0.254 0.012 0.397 0.014l0.010 0c0.159-0.005 0.3-0.012 0.441-0.022l-0.035 0.002v-0.807c-0.114 0.007-0.256 0.012-0.398 0.014l-0.008 0c-0.157-0.005-0.299-0.012-0.439-0.022l0.033 0.002z"></path>
</svg>
