<!-- Generated by IcoMoon.io -->
<svg version="1.1" xmlns="http://www.w3.org/2000/svg" width="32" height="32" viewBox="0 0 32 32">
<title>mergers-and-acquisitions</title>
<path fill="#243e87" d="M0.396 8.593v13.717c0 0 0.029 0.464 0.407 0.812 0.343 0.316 0.781 0.284 0.781 0.284l5.127-0.004c0 0 0.188-0.054 0.385-0.17s0.422-0.302 0.459-0.585c0.046-0.352-0.13-0.75-0.301-1.145s-0.342-0.786-0.342-1.043c0-0.667 0.155-1.487 0.6-1.931 0.384-0.384 1.155-0.666 1.77-0.619 0.592 0.045 1.226 0.371 1.581 0.841 0.37 0.489 0.44 1.196 0.394 1.854-0.021 0.297-0.204 0.642-0.385 0.977s-0.366 0.661-0.323 0.982c0.080 0.6 0.713 0.836 0.713 0.836l0.020 0.008h19.152c0 0 0.154-0.007 0.34-0.046s0.41-0.107 0.565-0.262c0.157-0.157 0.215-0.379 0.243-0.559s0.022-0.328 0.022-0.328v-13.617zM0.623 8.82h30.753v13.399c0 0 0.005 0.127-0.019 0.284s-0.082 0.337-0.179 0.433c-0.095 0.095-0.286 0.165-0.452 0.201s-0.302 0.041-0.302 0.041h-19.093c-0.023-0.010-0.5-0.209-0.558-0.646-0.027-0.203 0.119-0.51 0.299-0.844s0.386-0.695 0.412-1.069c0.048-0.684-0.015-1.446-0.439-2.007-0.402-0.532-1.085-0.88-1.745-0.93-0.694-0.053-1.499 0.236-1.947 0.684-0.522 0.522-0.667 1.392-0.667 2.092 0 0.348 0.191 0.742 0.361 1.133s0.316 0.777 0.284 1.024c-0.023 0.174-0.18 0.319-0.349 0.419-0.164 0.097-0.313 0.14-0.323 0.143l-5.090 0c0 0-0.344 0.022-0.611-0.224-0.307-0.282-0.333-0.655-0.334-0.658z"></path>
<path fill="#243e87" d="M1.618 22.313l0.014-12.518 13.825 0.015c0 0-0.235 3.245 0.392 4.052 0.303 0.389 0.791 0.289 1.205 0.305 0.682 0.026 1.224-0.559 2.019-0.349 0.96 0.254 2.042 1.129 2.091 2.12 0.048 0.97-0.922 1.921-1.83 2.266-0.927 0.351-2.096-0.605-2.934-0.494-0.668 0.089-0.913 0.772-0.929 1.147-0.044 0.984-0.014 3.413-0.014 3.413l-3.645 0.015c0 0 0.71-1.699 0.581-2.454-0.163-0.952-0.558-1.849-1.293-2.338s-1.422-0.678-2.265-0.61c-1.088 0.088-1.942 0.689-2.498 1.481-0.476 0.678-0.606 1.624-0.465 2.44 0.093 0.536 0.45 1.51 0.45 1.51z"></path>
<path fill="#243e87" d="M16.468 9.818l13.969-0.022-0.007 12.463-13.775 0.022c0 0-0.321-2.928-0.024-3.431 0.277-0.468 1.616 0.542 2.358 0.471 0.859-0.082 1.698-0.433 2.264-1.133 0.54-0.669 0.829-1.49 0.771-2.38-0.055-0.837-0.476-1.654-0.973-2.109-0.569-0.521-1.327-0.857-2.097-0.882-0.798-0.026-2.241 0.875-2.368 0.295-0.15-0.684-0.116-3.294-0.116-3.294z"></path>
</svg>
