<!-- Generated by IcoMoon.io -->
<svg version="1.1" xmlns="http://www.w3.org/2000/svg" width="32" height="32" viewBox="0 0 32 32">
<title>project-search</title>
<path fill="#243e87" d="M17.376 8.599c0 0.444-0.36 0.804-0.804 0.804v0c-0 0-0 0-0 0-0.444 0-0.804-0.36-0.804-0.804v-0c0-0 0-0 0-0.001 0-0.444 0.36-0.804 0.804-0.804h0c0 0 0 0 0.001 0 0.444 0 0.804 0.36 0.804 0.803v0l-0.804 0.001z"></path>
<path fill="#243e87" d="M14.907 11.034c0 0.444-0.36 0.804-0.804 0.804v0c-0 0-0 0-0 0-0.444 0-0.804-0.36-0.804-0.804v-0c0-0 0-0 0-0.001 0-0.444 0.36-0.804 0.804-0.804h0c0 0 0.001 0 0.001 0 0.444 0 0.804 0.36 0.804 0.803v0l-0.804 0.001z"></path>
<path fill="#243e87" d="M12.924 9.643c0 0.444-0.36 0.804-0.804 0.804v0c-0 0-0 0-0 0-0.444 0-0.804-0.36-0.804-0.804v-0c0-0 0-0 0-0.001 0-0.444 0.36-0.804 0.804-0.804h0c0 0 0.001 0 0.001 0 0.444 0 0.804 0.36 0.804 0.803v0l-0.804 0.001z"></path>
<path fill="#243e87" d="M16.507 8.533l-2.415 2.381-1.981-1.391-2.212 2.105 0.128 0.135 2.102-2 1.984 1.392 2.525-2.489z"></path>
<path fill="#243e87" d="M10.37 12.108c0 0.444-0.36 0.804-0.804 0.804v0c-0 0-0 0-0 0-0.444 0-0.804-0.36-0.804-0.804v-0c0-0 0-0 0-0.001 0-0.444 0.36-0.804 0.804-0.804h0c0 0 0.001 0 0.001 0 0.444 0 0.804 0.36 0.804 0.803v0l-0.804 0.001z"></path>
<path fill="#243e87" d="M6.578 7.030v11.145h13.865v-0.464h-13.4v-10.681z"></path>
<path fill="#243e87" d="M8.673 15.421h1.67v2.365h-1.67v-2.365z"></path>
<path fill="#243e87" d="M15.714 11.734h1.67v6.052h-1.67v-6.053z"></path>
<path fill="#243e87" d="M11.020 12.916h1.67v4.87h-1.67v-4.87z"></path>
<path fill="#243e87" d="M13.367 14.482h1.67v3.305h-1.67v-3.305z"></path>
<path fill="#243e87" d="M1.808 5.19c-0.264 0-0.476 0.213-0.476 0.476v13.871c0 0.264 0.212 0.476 0.476 0.476h17.513v-0.643h-16.911c-0.205 0-0.371-0.165-0.371-0.371v-12.796c0-0.205 0.165-0.371 0.371-0.371h22.108c0.205 0 0.371 0.165 0.371 0.371v9.706h0.708v-10.244c0-0.264-0.213-0.476-0.476-0.476z"></path>
<path fill="#243e87" d="M19.321 23.153v-3.013h-17.285c-0.795 0-1.435 0.64-1.435 1.435v0.143c0 0.795 0.64 1.435 1.435 1.435z"></path>
<path fill="#243e87" d="M24.365 16.877c-2.131 0-3.858 1.727-3.858 3.858v0c0 0 0 0 0 0 0 2.131 1.727 3.858 3.858 3.858v0c0.91 0 1.747-0.315 2.406-0.842l-0.008 0.006 3.362 2.899c0 0 0.635 0.398 1.093-0.081 0.445-0.465-0.075-1.015-0.075-1.015l-3.41-2.947c0.307-0.541 0.489-1.188 0.489-1.877v-0c-0-2.131-1.727-3.858-3.858-3.858 0 0 0 0 0 0v0zM24.362 17.793c0.001 0 0.002 0 0.003 0 1.623 0 2.94 1.315 2.942 2.938v0l-2.942 0.004h2.942c0 1.624-1.317 2.941-2.941 2.942h-0c-0 0-0.001 0-0.001 0-1.624 0-2.941-1.316-2.942-2.94v-0c0-0.001 0-0.001 0-0.002 0-1.624 1.315-2.94 2.939-2.942h0z"></path>
</svg>
