<!-- Generated by IcoMoon.io -->
<svg version="1.1" xmlns="http://www.w3.org/2000/svg" width="32" height="32" viewBox="0 0 32 32">
<title>project-profile</title>
<path fill="#243e87" d="M20.618 9.344c0 0.531-0.43 0.961-0.96 0.961h-0c-0 0-0 0-0 0-0.53 0-0.96-0.43-0.961-0.96v-0c0-0 0-0 0-0.001 0-0.53 0.43-0.96 0.96-0.961h0c0 0 0.001 0 0.001 0 0.53 0 0.96 0.429 0.961 0.96v0l-0.961 0.001z"></path>
<path fill="#243e87" d="M17.668 12.252c0 0.531-0.43 0.961-0.96 0.961h-0c-0 0-0 0-0 0-0.53 0-0.96-0.43-0.961-0.96v-0c0-0 0-0 0-0.001 0-0.53 0.43-0.96 0.96-0.961h0c0 0 0.001 0 0.001 0 0.53 0 0.96 0.429 0.961 0.96v0l-0.961 0.001z"></path>
<path fill="#243e87" d="M15.3 10.591c0 0.531-0.43 0.961-0.96 0.961h-0c-0 0-0 0-0 0-0.53 0-0.96-0.43-0.961-0.96v-0c0-0 0-0 0-0.001 0-0.53 0.43-0.96 0.96-0.961h0c0 0 0.001 0 0.001 0 0.53 0 0.96 0.429 0.961 0.96v0l-0.961 0.001z"></path>
<path fill="#243e87" d="M19.579 9.265l-2.884 2.843-2.367-1.661-2.642 2.514 0.153 0.161 2.51-2.389 2.369 1.663 3.016-2.973z"></path>
<path fill="#243e87" d="M12.25 13.535c0 0.531-0.43 0.961-0.96 0.961h-0c-0 0-0 0-0 0-0.53 0-0.96-0.43-0.961-0.96v-0c0-0 0-0 0-0.001 0-0.53 0.43-0.96 0.96-0.961h0c0 0 0.001 0 0.001 0 0.53 0 0.96 0.429 0.961 0.96v0l-0.961 0.001z"></path>
<path fill="#243e87" d="M7.72 7.47v13.311h16.56v-0.555h-16.005v-12.757z"></path>
<path fill="#243e87" d="M10.222 17.492h1.994v2.825h-1.994v-2.825z"></path>
<path fill="#243e87" d="M18.633 13.088h1.994v7.229h-1.994v-7.229z"></path>
<path fill="#243e87" d="M13.025 14.501h1.994v5.816h-1.994v-5.816z"></path>
<path fill="#243e87" d="M15.829 16.37h1.994v3.947h-1.994v-3.947z"></path>
<path fill="#243e87" d="M2.024 5.273c-0.315 0-0.569 0.254-0.569 0.569v16.568c0 0.315 0.254 0.569 0.569 0.569h27.843c0.315 0 0.569-0.254 0.569-0.569v-16.568c0-0.315-0.254-0.569-0.569-0.569zM2.743 6.041h26.405c0.245 0 0.443 0.198 0.443 0.443v15.284c0 0.245-0.198 0.443-0.443 0.443h-26.405c-0.245 0-0.443-0.197-0.443-0.443v-15.284c0-0.245 0.198-0.443 0.443-0.443z"></path>
<path fill="#243e87" d="M2.296 23.129h27.409c0.946 0 1.714 0.767 1.714 1.714v0.171c0 0.946-0.767 1.714-1.714 1.714h-27.409c-0.946 0-1.714-0.767-1.714-1.714v-0.171c0-0.946 0.767-1.714 1.714-1.714z"></path>
</svg>
