<!-- Generated by IcoMoon.io -->
<svg version="1.1" xmlns="http://www.w3.org/2000/svg" width="32" height="32" viewBox="0 0 32 32">
<title>search-button</title>
<path fill="#243e87" d="M11.534 2.035c-5.991 0-10.847 4.857-10.847 10.847v0c0 0 0 0 0 0 0 5.991 4.856 10.847 10.847 10.847v0c2.559 0 4.911-0.886 6.766-2.368l-0.022 0.017 9.454 8.152c0 0 1.786 1.118 3.074-0.228 1.251-1.306-0.212-2.855-0.212-2.855l-9.589-8.287c0.864-1.52 1.374-3.339 1.375-5.277v-0c-0-5.991-4.857-10.847-10.847-10.847 0 0-0 0-0 0v0zM11.527 4.61c0.002 0 0.005 0 0.008 0 4.565 0 8.266 3.697 8.272 8.261v0.001l-8.272 0.011h8.272c0 4.567-3.702 8.27-8.269 8.272h-0c-0.001 0-0.002 0-0.003 0-4.566 0-8.269-3.7-8.272-8.266v-0c0-0.002 0-0.003 0-0.005 0-4.566 3.699-8.267 8.263-8.272h0z"></path>
<path fill="#243e87" d="M6.541 9.639c-1.154 0.537-1.946 1.733-1.948 3.124v0c0.001 1.545 0.976 2.85 2.313 3.267l0.023 0.006c-0.781-0.761-1.286-2.009-1.286-3.422v-0c0-1.166 0.344-2.22 0.897-2.975l0.001-0.001z"></path>
</svg>
