<!-- Generated by IcoMoon.io -->
<svg version="1.1" xmlns="http://www.w3.org/2000/svg" width="32" height="32" viewBox="0 0 32 32">
<title>user-profile</title>
<path fill="#243e87" d="M16 1.076c-4.459 0-8.073 3.615-8.073 8.073v0c0.003 2.387 1.042 4.531 2.691 6.007l0.008 0.007c-2.7 0.674-4.931 1.926-6.606 4.083-2.515 3.238-2.826 11.679-2.826 11.679h29.607c0 0 0.273-8.569-2.543-11.679-1.74-1.922-4.037-3.369-6.824-4.136 1.622-1.48 2.637-3.601 2.641-5.96v-0.001c0-4.459-3.615-8.073-8.073-8.073 0 0 0 0 0 0v0zM16 2.346c0 0 0 0 0 0 3.757 0 6.803 3.046 6.803 6.803v0c-0.002 3.134-2.121 5.772-5.005 6.56l-0.048 0.011c4.003 0.239 7.188 1.739 9.391 4.028 2.56 2.659 2.312 9.983 2.312 9.983h-26.913c0 0 0.283-7.215 2.569-9.983 2.17-2.627 5.363-3.684 9.357-3.977-3.040-0.721-5.267-3.411-5.271-6.621v-0c0-3.757 3.046-6.803 6.803-6.803v0z"></path>
<path fill="#243e87" d="M3.85 28.499h24.295c0 0 0.224-6.043-2.087-8.237-2.251-2.137-5.636-3.442-9.944-3.347s-7.722 0.887-9.944 3.347c-2.064 2.284-2.319 8.237-2.319 8.237z"></path>
<path fill="#243e87" d="M21.836 9.149c0 3.223-2.613 5.836-5.836 5.836s-5.836-2.613-5.836-5.836c0-3.223 2.613-5.836 5.836-5.836s5.836 2.613 5.836 5.836z"></path>
</svg>
