<svg aria-hidden="true" style="position: absolute; width: 0; height: 0; overflow: hidden;" version="1.1" xmlns="http://www.w3.org/2000/svg" xmlns:xlink="http://www.w3.org/1999/xlink">
  <defs>
    <symbol id="icon-search-button" viewBox="0 0 32 32">
      <title>search-button</title>
      <path
        fill="param(fill) #FFF"
        style="fill: param(fill) #FFF"
        d="M11.534 2.035c-5.991 0-10.847 4.857-10.847 10.847v0c0 0 0 0 0 0 0 5.991 4.856 10.847 10.847 10.847v0c2.559 0 4.911-0.886 6.766-2.368l-0.022 0.017 9.454 8.152c0 0 1.786 1.118 3.074-0.228 1.251-1.306-0.212-2.855-0.212-2.855l-9.589-8.287c0.864-1.52 1.374-3.339 1.375-5.277v-0c-0-5.991-4.857-10.847-10.847-10.847 0 0-0 0-0 0v0zM11.527 4.61c0.002 0 0.005 0 0.008 0 4.565 0 8.266 3.697 8.272 8.261v0.001l-8.272 0.011h8.272c0 4.567-3.702 8.27-8.269 8.272h-0c-0.001 0-0.002 0-0.003 0-4.566 0-8.269-3.7-8.272-8.266v-0c0-0.002 0-0.003 0-0.005 0-4.566 3.699-8.267 8.263-8.272h0z"></path>
      <path fill="param(fill) #FFF" style="fill: param(fill) #FFF" d="M6.541 9.639c-1.154 0.537-1.946 1.733-1.948 3.124v0c0.001 1.545 0.976 2.85 2.313 3.267l0.023 0.006c-0.781-0.761-1.286-2.009-1.286-3.422v-0c0-1.166 0.344-2.22 0.897-2.975l0.001-0.001z"></path>
    </symbol>
    <symbol id="icon-button-selector" viewBox="0 0 12 32">
      <title>button-selector</title>
      <path
        fill="param(fill) #FFF"
        style="fill: param(fill) #FFF"
        d="M1.396 0.907c-0.278 0-0.502 0.224-0.502 0.502v29.182c0 0.278 0.224 0.502 0.502 0.502h9.425c0.278 0 0.502-0.224 0.502-0.502v-29.182c0-0.278-0.224-0.502-0.502-0.502zM2.143 2.34h7.932v27.321h-7.932z"></path>
      <path fill="param(fill) #FFF" style="fill: param(fill) #FFF" d="M9.084 6.117c0 1.501-1.332 2.717-2.974 2.717s-2.974-1.217-2.974-2.717c0-1.501 1.332-2.717 2.974-2.717s2.974 1.217 2.974 2.717z"></path>
      <path fill="param(fill) #FFF" style="fill: param(fill) #FFF" d="M9.084 16.072c0 1.501-1.332 2.717-2.974 2.717s-2.974-1.217-2.974-2.717c0-1.501 1.332-2.717 2.974-2.717s2.974 1.217 2.974 2.717z"></path>
      <path fill="param(fill) #FFF" style="fill: param(fill) #FFF" d="M9.084 26.027c0 1.501-1.332 2.717-2.974 2.717s-2.974-1.217-2.974-2.717c0-1.501 1.332-2.717 2.974-2.717s2.974 1.217 2.974 2.717z"></path>
    </symbol>
    <symbol id="icon-user-profile" viewBox="0 0 32 32">
      <title>user-profile</title>
      <path
        fill="param(fill) #FFF"
        style="fill: param(fill) #FFF"
        d="M16 1.076c-4.459 0-8.073 3.615-8.073 8.073v0c0.003 2.387 1.042 4.531 2.691 6.007l0.008 0.007c-2.7 0.674-4.931 1.926-6.606 4.083-2.515 3.238-2.826 11.679-2.826 11.679h29.607c0 0 0.273-8.569-2.543-11.679-1.74-1.922-4.037-3.369-6.824-4.136 1.622-1.48 2.637-3.601 2.641-5.96v-0.001c0-4.459-3.615-8.073-8.073-8.073 0 0 0 0 0 0v0zM16 2.346c0 0 0 0 0 0 3.757 0 6.803 3.046 6.803 6.803v0c-0.002 3.134-2.121 5.772-5.005 6.56l-0.048 0.011c4.003 0.239 7.188 1.739 9.391 4.028 2.56 2.659 2.312 9.983 2.312 9.983h-26.913c0 0 0.283-7.215 2.569-9.983 2.17-2.627 5.363-3.684 9.357-3.977-3.040-0.721-5.267-3.411-5.271-6.621v-0c0-3.757 3.046-6.803 6.803-6.803v0z"></path>
      <path fill="param(fill) #FFF" style="fill: param(fill) #FFF" d="M3.85 28.499h24.295c0 0 0.224-6.043-2.087-8.237-2.251-2.137-5.636-3.442-9.944-3.347s-7.722 0.887-9.944 3.347c-2.064 2.284-2.319 8.237-2.319 8.237z"></path>
      <path fill="param(fill) #FFF" style="fill: param(fill) #FFF" d="M21.836 9.149c0 3.223-2.613 5.836-5.836 5.836s-5.836-2.613-5.836-5.836c0-3.223 2.613-5.836 5.836-5.836s5.836 2.613 5.836 5.836z"></path>
    </symbol>
    <symbol id="icon-investors_funding" viewBox="0 0 32 32">
      <title>investors_funding</title>
      <path
        fill="param(fill) #FFF"
        style="fill: param(fill) #FFF"
        d="M4.491 20.754c-0.495 0-0.899 0.335-0.899 0.746v8.104c0 0.411 0.404 0.746 0.899 0.746h22.263c0.495 0 0.899-0.335 0.899-0.746v-8.105c0-0.411-0.404-0.746-0.899-0.746zM4.491 21.028h22.263c0.317 0 0.568 0.208 0.568 0.471v8.104c0 0.263-0.25 0.471-0.568 0.471h-22.263c-0.317 0-0.568-0.208-0.568-0.471v-8.105c0-0.263 0.25-0.471 0.568-0.471z"></path>
      <path
        fill="param(fill) #FFF"
        style="fill: param(fill) #FFF"
        d="M31.5 1.65l-0.24 0.083c0 0-2.855 0.984-4.22 1.186-0.968 0.144-1.97 0.171-2.959 0.13-1.721-0.071-3.356-0.427-5.115-0.545-1.194-0.080-2.721-0.155-3.932 0.001-0.828 0.107-1.653 0.372-2.379 0.711-4.978 2.323-11.334 7.207-11.334 7.207l-0.192 0.148 0.235 0.093c0 0 0.146 0.058 0.308 0.135s0.345 0.192 0.365 0.215c0.002 0.002 0.029 0.057 0.040 0.13s0.015 0.163 0.013 0.249c-0.003 0.172-0.023 0.326-0.023 0.326l-0.030 0.22 0.251-0.062c0 0 1.221-0.301 1.845-0.543 1.257-0.489 2.473-1.072 3.662-1.612 0.891-0.404 1.869-0.988 2.591-1.175 0.071-0.018 0.044-0.017 0.068 0.006s0.063 0.097 0.103 0.192c0.231 0.56 0.436 1.482 0.737 1.994 0.524 0.891 1.383 1.529 1.383 1.529l0.067 0.050 2.224-0.441-0.123-0.172c0 0-0.337-0.472-0.656-1.070s-0.608-1.33-0.548-1.781c0.070-0.518 0.363-0.843 0.87-1.175 0.566-0.37 1.276-0.483 2.030-0.532 0.781-0.051 1.532-0.012 2.245 0.219 0.265 0.086 0.503 0.166 0.674 0.262s0.276 0.198 0.322 0.357c0.168 0.578-0.225 1.204-0.722 1.786-0.473 0.554-1.342 0.907-1.973 1.47-0.414 0.37-0.945 1.048-0.945 1.048l-0.213 0.271 0.381-0.044c0 0 0.163-0.019 0.35-0.016s0.384 0.049 0.419 0.079c-0.008-0.007 0.022 0.031 0.041 0.086s0.034 0.125 0.046 0.193c0.023 0.135 0.031 0.259 0.031 0.259l0.013 0.224 0.238-0.1c0 0 3.714-1.56 5.519-2.365 1.454-0.649 2.963-1.231 4.39-1.955 1.423-0.723 4.062-2.362 4.062-2.362l0.070-0.044zM31.152 2.083l-0.010 4.28c-0.12 0.074-2.61 1.617-3.964 2.304-1.404 0.713-2.907 1.293-4.373 1.947-1.698 0.757-4.923 2.114-5.287 2.267-0.004-0.032-0.002-0.031-0.008-0.067-0.013-0.076-0.030-0.156-0.056-0.231s-0.050-0.145-0.127-0.211c-0.183-0.157-0.443-0.163-0.66-0.167-0.018-0-0.016 0.001-0.033 0.002 0.185-0.224 0.455-0.541 0.706-0.765 0.567-0.506 1.457-0.86 2.003-1.5 0.513-0.602 0.987-1.304 0.777-2.027-0.069-0.237-0.25-0.409-0.468-0.531s-0.475-0.205-0.741-0.291c-0.778-0.252-1.585-0.291-2.396-0.238-0.778 0.051-1.566 0.169-2.216 0.592-0.547 0.357-0.922 0.773-1.003 1.373-0.078 0.579 0.247 1.319 0.576 1.935 0.24 0.449 0.441 0.754 0.559 0.927l-1.584 0.314c-0.092-0.071-0.787-0.614-1.243-1.388-0.252-0.428-0.472-1.359-0.72-1.96-0.041-0.098-0.077-0.199-0.168-0.288s-0.27-0.136-0.432-0.094c-0.827 0.214-1.794 0.807-2.654 1.197-1.195 0.542-2.404 1.122-3.643 1.604-0.467 0.181-1.255 0.387-1.56 0.466 0.004-0.057 0.009-0.063 0.010-0.135 0.002-0.095-0.001-0.196-0.016-0.291s-0.032-0.183-0.105-0.266c-0.115-0.132-0.301-0.215-0.475-0.297-0.052-0.025-0.054-0.023-0.099-0.043 0.519-0.396 6.39-4.838 11.081-7.027 0.695-0.325 1.486-0.578 2.263-0.677 1.151-0.148 2.665-0.078 3.852 0.001 1.721 0.115 3.359 0.472 5.125 0.545 1.007 0.042 2.035 0.015 3.036-0.134 1.359-0.202 3.681-0.997 4.052-1.125z"></path>
      <path
        fill="param(fill) #FFF"
        style="fill: param(fill) #FFF"
        d="M1.326 10.421c0 0-0.129 0.093-0.28 0.217s-0.323 0.275-0.425 0.425c-0.129 0.189-0.165 0.426-0.057 0.637 0.095 0.185 0.305 0.268 0.479 0.31 0.259 0.063 0.519 0.004 0.742-0.029 0.203-0.030 0.503-0.105 0.503-0.105l-0.097-0.281c0 0-0.306 0.074-0.465 0.098-0.235 0.034-0.461 0.067-0.586 0.036-0.115-0.028-0.233-0.097-0.258-0.145-0.058-0.113-0.040-0.258 0.040-0.374 0.064-0.094 0.225-0.245 0.367-0.362s0.262-0.204 0.262-0.204z"></path>
      <path
        fill="param(fill) #FFF"
        style="fill: param(fill) #FFF"
        d="M16.139 12.294c0 0-0.072 0.102-0.149 0.232s-0.163 0.28-0.191 0.423c-0.023 0.115 0.005 0.231 0.073 0.329 0.085 0.122 0.219 0.184 0.347 0.225 0.211 0.066 0.414 0.024 0.571-0.007 0.149-0.029 0.306-0.094 0.438-0.153s0.235-0.111 0.235-0.111l-0.18-0.251c0 0-0.094 0.048-0.215 0.102s-0.275 0.111-0.355 0.127c-0.15 0.029-0.287 0.045-0.371 0.018-0.113-0.036-0.124-0.034-0.168-0.098-0.030-0.043-0.039-0.085-0.030-0.131 0.014-0.069 0.088-0.22 0.159-0.34s0.138-0.214 0.138-0.214z"></path>
      <path
        fill="param(fill) #FFF"
        style="fill: param(fill) #FFF"
        d="M14.66 12.402c-2.288-0-4.147 1.745-4.147 3.892s1.859 3.892 4.147 3.892c2.288 0 4.147-1.745 4.147-3.892v-0c-0.002-0.804-0.269-1.588-0.765-2.244l-0.128-0.169-0.145 0.156c-0.408 0.44-1.047 0.624-1.648 0.474-0.871-0.219-1.385-1.054-1.152-1.872 0.002-0.006 0.004-0.011 0.006-0.017l0.070-0.199-0.223-0.015c-0.053-0.003-0.105-0.006-0.158-0.007l-0.003-0zM14.605 12.731c-0.165 0.93 0.438 1.847 1.428 2.096h0c0.652 0.163 1.341-0.001 1.834-0.42 0.38 0.566 0.592 1.217 0.594 1.888-0 1.972-1.699 3.566-3.8 3.566s-3.8-1.595-3.8-3.567c0-1.954 1.67-3.536 3.745-3.564z"></path>
      <path
        fill="param(fill) #FFF"
        style="fill: param(fill) #FFF"
        d="M9.073 22.753c-0.593 0-1.075 0.453-1.075 1.009v1.183c0 0.556 0.483 1.009 1.075 1.009h13.224c0.593 0 1.075-0.453 1.075-1.009v-1.183c0-0.556-0.483-1.009-1.075-1.009zM9.073 23.078h13.224c0.407 0 0.728 0.302 0.728 0.684v1.183c0 0.382-0.322 0.684-0.728 0.684h-13.224c-0.407 0-0.728-0.302-0.728-0.684v-1.183c0-0.382 0.322-0.684 0.728-0.684z"></path>
      <path fill="param(fill) #FFF" style="fill: param(fill) #FFF" d="M11.415 23.796h8.541c0.328 0 0.594 0.25 0.594 0.558s-0.266 0.558-0.594 0.558h-8.541c-0.328 0-0.594-0.25-0.594-0.558s0.266-0.558 0.594-0.558z"></path>
    </symbol>
    <symbol id="icon-management-team" viewBox="0 0 32 32">
      <title>management-team</title>
      <path
        fill="param(fill) #FFF"
        style="fill: param(fill) #FFF"
        d="M16 2.345c-1.973 0-3.572 1.599-3.572 3.572v0c0.002 1.056 0.461 2.005 1.191 2.658l0.003 0.003c-1.195 0.298-2.182 0.852-2.923 1.806-1.113 1.433-1.251 5.168-1.251 5.168h13.101c0 0 0.121-3.791-1.125-5.168-0.77-0.851-1.787-1.491-3.020-1.83 0.718-0.655 1.167-1.593 1.168-2.637v-0c0-1.973-1.599-3.572-3.572-3.572 0 0 0 0 0 0v0zM16 2.907c0 0 0 0 0 0 1.663 0 3.010 1.348 3.010 3.010v0c-0.001 1.387-0.939 2.554-2.215 2.903l-0.021 0.005c1.771 0.106 3.18 0.769 4.155 1.782 1.133 1.177 1.023 4.417 1.023 4.417h-11.908c0 0 0.125-3.193 1.137-4.417 0.96-1.162 2.373-1.63 4.14-1.76-1.345-0.319-2.331-1.509-2.332-2.93v-0c0-1.663 1.348-3.010 3.010-3.010v0z"></path>
      <path fill="param(fill) #FFF" style="fill: param(fill) #FFF" d="M10.624 14.48h10.75c0 0 0.099-2.674-0.923-3.645-0.996-0.946-2.494-1.523-4.4-1.481s-3.417 0.393-4.4 1.481c-0.913 1.011-1.026 3.645-1.026 3.645z"></path>
      <path fill="param(fill) #FFF" style="fill: param(fill) #FFF" d="M18.582 5.918c0 1.426-1.156 2.582-2.582 2.582s-2.582-1.156-2.582-2.582c0-1.426 1.156-2.582 2.582-2.582s2.582 1.156 2.582 2.582z"></path>
      <path
        fill="param(fill) #FFF"
        style="fill: param(fill) #FFF"
        d="M25.040 16.447c-1.973 0-3.572 1.599-3.572 3.572v0c0.002 1.056 0.461 2.005 1.191 2.658l0.003 0.003c-1.195 0.298-2.182 0.852-2.923 1.806-1.113 1.433-1.25 5.168-1.25 5.168h13.101c0 0 0.121-3.791-1.125-5.168-0.77-0.851-1.787-1.491-3.020-1.83 0.718-0.655 1.167-1.593 1.168-2.637v-0c0-1.973-1.599-3.572-3.572-3.572 0 0 0 0 0 0v0zM25.040 17.009c0 0 0 0 0 0 1.663 0 3.010 1.348 3.010 3.010v0c-0.001 1.387-0.939 2.554-2.215 2.903l-0.021 0.005c1.771 0.106 3.18 0.769 4.155 1.782 1.133 1.177 1.023 4.417 1.023 4.417h-11.908c0 0 0.125-3.193 1.137-4.417 0.96-1.162 2.373-1.63 4.14-1.76-1.345-0.319-2.331-1.509-2.332-2.93v-0c0-1.663 1.348-3.010 3.010-3.010v0z"></path>
      <path fill="param(fill) #FFF" style="fill: param(fill) #FFF" d="M19.664 28.582h10.75c0 0 0.099-2.674-0.923-3.645-0.996-0.946-2.494-1.523-4.4-1.481s-3.417 0.392-4.4 1.481c-0.913 1.011-1.026 3.645-1.026 3.645z"></path>
      <path fill="param(fill) #FFF" style="fill: param(fill) #FFF" d="M27.623 20.019c0 1.426-1.156 2.582-2.582 2.582s-2.582-1.156-2.582-2.582c0-1.426 1.156-2.582 2.582-2.582s2.582 1.156 2.582 2.582z"></path>
      <path
        fill="param(fill) #FFF"
        style="fill: param(fill) #FFF"
        d="M6.96 16.447c-1.973 0-3.572 1.599-3.572 3.572v0c0.002 1.056 0.461 2.005 1.191 2.658l0.003 0.003c-1.195 0.298-2.182 0.852-2.923 1.806-1.113 1.433-1.25 5.168-1.25 5.168h13.101c0 0 0.121-3.791-1.125-5.168-0.77-0.851-1.787-1.491-3.020-1.83 0.718-0.655 1.167-1.593 1.168-2.637v-0c0-1.973-1.599-3.572-3.572-3.572 0 0 0 0 0 0v0zM6.96 17.009c0 0 0 0 0 0 1.663 0 3.010 1.348 3.010 3.010v0c-0.001 1.387-0.939 2.554-2.215 2.903l-0.021 0.005c1.771 0.106 3.18 0.769 4.155 1.782 1.133 1.177 1.023 4.417 1.023 4.417h-11.908c0 0 0.125-3.193 1.137-4.417 0.96-1.162 2.373-1.63 4.14-1.76-1.345-0.319-2.331-1.509-2.332-2.93v-0c0-1.663 1.348-3.010 3.010-3.010v0z"></path>
      <path fill="param(fill) #FFF" style="fill: param(fill) #FFF" d="M1.584 28.582h10.75c0 0 0.099-2.674-0.923-3.645-0.996-0.946-2.494-1.523-4.4-1.481s-3.417 0.392-4.4 1.481c-0.913 1.011-1.026 3.645-1.026 3.645z"></path>
      <path fill="param(fill) #FFF" style="fill: param(fill) #FFF" d="M9.542 20.019c0 1.426-1.156 2.582-2.582 2.582s-2.582-1.156-2.582-2.582c0-1.426 1.156-2.582 2.582-2.582s2.582 1.156 2.582 2.582z"></path>
      <path fill="param(fill) #FFF" style="fill: param(fill) #FFF" d="M10.924 7.546c-0.291 0.157-0.52 0.293-0.743 0.438l0.043-0.026 0.402 0.696c0.184-0.119 0.414-0.253 0.65-0.378l0.055-0.026z"></path>
      <path fill="param(fill) #FFF" style="fill: param(fill) #FFF" d="M21.075 7.546l-0.407 0.704c0.288 0.153 0.518 0.289 0.741 0.434l-0.039-0.024 0.41-0.71c-0.18-0.116-0.411-0.25-0.646-0.376l-0.058-0.029z"></path>
      <path fill="param(fill) #FFF" style="fill: param(fill) #FFF" d="M22.667 8.572l-0.528 0.629c0.232 0.18 0.435 0.351 0.631 0.529l-0.008-0.007 0.523-0.623c-0.187-0.173-0.388-0.346-0.596-0.511l-0.022-0.017z"></path>
      <path fill="param(fill) #FFF" style="fill: param(fill) #FFF" d="M9.338 8.578c-0.233 0.181-0.436 0.352-0.632 0.53l0.009-0.008 0.522 0.622c0.188-0.174 0.389-0.346 0.598-0.51l0.021-0.016z"></path>
      <path fill="param(fill) #FFF" style="fill: param(fill) #FFF" d="M7.95 9.865c-0.173 0.187-0.346 0.388-0.511 0.596l-0.017 0.022 0.629 0.527c0.18-0.232 0.351-0.435 0.529-0.631l-0.007 0.008z"></path>
      <path fill="param(fill) #FFF" style="fill: param(fill) #FFF" d="M24.050 9.865l-0.622 0.522c0.174 0.188 0.346 0.39 0.51 0.598l0.016 0.021 0.617-0.518c-0.181-0.233-0.352-0.436-0.53-0.632l0.008 0.009z"></path>
      <path fill="param(fill) #FFF" style="fill: param(fill) #FFF" d="M6.801 11.369c-0.116 0.18-0.25 0.411-0.376 0.646l-0.029 0.059 0.704 0.407c0.153-0.288 0.289-0.518 0.434-0.741l-0.024 0.039z"></path>
      <path fill="param(fill) #FFF" style="fill: param(fill) #FFF" d="M25.192 11.373l-0.696 0.402c0.119 0.184 0.253 0.414 0.378 0.65l0.026 0.055 0.703-0.406c-0.157-0.291-0.293-0.52-0.438-0.743l0.026 0.043z"></path>
      <path fill="param(fill) #FFF" style="fill: param(fill) #FFF" d="M26.062 13.055l-0.765 0.279c0.078 0.182 0.171 0.436 0.254 0.694l0.020 0.071 0.77-0.28c-0.107-0.334-0.202-0.587-0.305-0.835l0.027 0.072z"></path>
      <path fill="param(fill) #FFF" style="fill: param(fill) #FFF" d="M5.939 13.056c-0.075 0.177-0.168 0.431-0.251 0.689l-0.021 0.077 0.756 0.275c0.105-0.329 0.199-0.582 0.303-0.83l-0.025 0.066z"></path>
      <path fill="param(fill) #FFF" style="fill: param(fill) #FFF" d="M26.62 14.864l-0.808 0.142c0.048 0.2 0.097 0.472 0.136 0.747l0.006 0.053 0.8-0.141c-0.043-0.331-0.090-0.604-0.147-0.873l0.013 0.071z"></path>
      <path fill="param(fill) #FFF" style="fill: param(fill) #FFF" d="M5.387 14.866c-0.046 0.196-0.096 0.467-0.135 0.742l-0.007 0.058 0.8 0.141c0.042-0.327 0.090-0.599 0.148-0.868l-0.012 0.066z"></path>
      <path fill="param(fill) #FFF" style="fill: param(fill) #FFF" d="M18.143 26.963c-0.2 0.048-0.472 0.097-0.747 0.136l-0.053 0.006 0.141 0.8c0.331-0.043 0.604-0.090 0.872-0.147l-0.071 0.013z"></path>
      <path fill="param(fill) #FFF" style="fill: param(fill) #FFF" d="M13.856 26.969l-0.14 0.794c0.195 0.046 0.467 0.096 0.742 0.135l0.058 0.007 0.141-0.8c-0.327-0.042-0.599-0.090-0.868-0.148l0.066 0.012z"></path>
      <path
        fill="param(fill) #FFF"
        style="fill: param(fill) #FFF"
        d="M15.594 27.186v0.819c0.113 0.007 0.254 0.012 0.397 0.014l0.010 0c0.159-0.005 0.3-0.012 0.441-0.022l-0.035 0.002v-0.807c-0.114 0.007-0.256 0.012-0.398 0.014l-0.008 0c-0.157-0.005-0.299-0.012-0.439-0.022l0.033 0.002z"></path>
    </symbol>
    <symbol id="icon-mergers-and-acquisitions" viewBox="0 0 32 32">
      <title>mergers-and-acquisitions</title>
      <path
        fill="param(fill) #FFF"
        style="fill: param(fill) #FFF"
        d="M0.396 8.593v13.717c0 0 0.029 0.464 0.407 0.812 0.343 0.316 0.781 0.284 0.781 0.284l5.127-0.004c0 0 0.188-0.054 0.385-0.17s0.422-0.302 0.459-0.585c0.046-0.352-0.13-0.75-0.301-1.145s-0.342-0.786-0.342-1.043c0-0.667 0.155-1.487 0.6-1.931 0.384-0.384 1.155-0.666 1.77-0.619 0.592 0.045 1.226 0.371 1.581 0.841 0.37 0.489 0.44 1.196 0.394 1.854-0.021 0.297-0.204 0.642-0.385 0.977s-0.366 0.661-0.323 0.982c0.080 0.6 0.713 0.836 0.713 0.836l0.020 0.008h19.152c0 0 0.154-0.007 0.34-0.046s0.41-0.107 0.565-0.262c0.157-0.157 0.215-0.379 0.243-0.559s0.022-0.328 0.022-0.328v-13.617zM0.623 8.82h30.753v13.399c0 0 0.005 0.127-0.019 0.284s-0.082 0.337-0.179 0.433c-0.095 0.095-0.286 0.165-0.452 0.201s-0.302 0.041-0.302 0.041h-19.093c-0.023-0.010-0.5-0.209-0.558-0.646-0.027-0.203 0.119-0.51 0.299-0.844s0.386-0.695 0.412-1.069c0.048-0.684-0.015-1.446-0.439-2.007-0.402-0.532-1.085-0.88-1.745-0.93-0.694-0.053-1.499 0.236-1.947 0.684-0.522 0.522-0.667 1.392-0.667 2.092 0 0.348 0.191 0.742 0.361 1.133s0.316 0.777 0.284 1.024c-0.023 0.174-0.18 0.319-0.349 0.419-0.164 0.097-0.313 0.14-0.323 0.143l-5.090 0c0 0-0.344 0.022-0.611-0.224-0.307-0.282-0.333-0.655-0.334-0.658z"></path>
      <path
        fill="param(fill) #FFF"
        style="fill: param(fill) #FFF"
        d="M1.618 22.313l0.014-12.518 13.825 0.015c0 0-0.235 3.245 0.392 4.052 0.303 0.389 0.791 0.289 1.205 0.305 0.682 0.026 1.224-0.559 2.019-0.349 0.96 0.254 2.042 1.129 2.091 2.12 0.048 0.97-0.922 1.921-1.83 2.266-0.927 0.351-2.096-0.605-2.934-0.494-0.668 0.089-0.913 0.772-0.929 1.147-0.044 0.984-0.014 3.413-0.014 3.413l-3.645 0.015c0 0 0.71-1.699 0.581-2.454-0.163-0.952-0.558-1.849-1.293-2.338s-1.422-0.678-2.265-0.61c-1.088 0.088-1.942 0.689-2.498 1.481-0.476 0.678-0.606 1.624-0.465 2.44 0.093 0.536 0.45 1.51 0.45 1.51z"></path>
      <path
        fill="param(fill) #FFF"
        style="fill: param(fill) #FFF"
        d="M16.468 9.818l13.969-0.022-0.007 12.463-13.775 0.022c0 0-0.321-2.928-0.024-3.431 0.277-0.468 1.616 0.542 2.358 0.471 0.859-0.082 1.698-0.433 2.264-1.133 0.54-0.669 0.829-1.49 0.771-2.38-0.055-0.837-0.476-1.654-0.973-2.109-0.569-0.521-1.327-0.857-2.097-0.882-0.798-0.026-2.241 0.875-2.368 0.295-0.15-0.684-0.116-3.294-0.116-3.294z"></path>
    </symbol>
    <symbol id="icon-project-search" viewBox="0 0 32 32">
      <title>project-search</title>
      <path
        fill="param(fill) #FFF"
        style="fill: param(fill) #FFF"
        d="M17.376 8.599c0 0.444-0.36 0.804-0.804 0.804v0c-0 0-0 0-0 0-0.444 0-0.804-0.36-0.804-0.804v-0c0-0 0-0 0-0.001 0-0.444 0.36-0.804 0.804-0.804h0c0 0 0 0 0.001 0 0.444 0 0.804 0.36 0.804 0.803v0l-0.804 0.001z"></path>
      <path
        fill="param(fill) #FFF"
        style="fill: param(fill) #FFF"
        d="M14.907 11.034c0 0.444-0.36 0.804-0.804 0.804v0c-0 0-0 0-0 0-0.444 0-0.804-0.36-0.804-0.804v-0c0-0 0-0 0-0.001 0-0.444 0.36-0.804 0.804-0.804h0c0 0 0.001 0 0.001 0 0.444 0 0.804 0.36 0.804 0.803v0l-0.804 0.001z"></path>
      <path
        fill="param(fill) #FFF"
        style="fill: param(fill) #FFF"
        d="M12.924 9.643c0 0.444-0.36 0.804-0.804 0.804v0c-0 0-0 0-0 0-0.444 0-0.804-0.36-0.804-0.804v-0c0-0 0-0 0-0.001 0-0.444 0.36-0.804 0.804-0.804h0c0 0 0.001 0 0.001 0 0.444 0 0.804 0.36 0.804 0.803v0l-0.804 0.001z"></path>
      <path fill="param(fill) #FFF" style="fill: param(fill) #FFF" d="M16.507 8.533l-2.415 2.381-1.981-1.391-2.212 2.105 0.128 0.135 2.102-2 1.984 1.392 2.525-2.489z"></path>
      <path
        fill="param(fill) #FFF"
        style="fill: param(fill) #FFF"
        d="M10.37 12.108c0 0.444-0.36 0.804-0.804 0.804v0c-0 0-0 0-0 0-0.444 0-0.804-0.36-0.804-0.804v-0c0-0 0-0 0-0.001 0-0.444 0.36-0.804 0.804-0.804h0c0 0 0.001 0 0.001 0 0.444 0 0.804 0.36 0.804 0.803v0l-0.804 0.001z"></path>
      <path fill="param(fill) #FFF" style="fill: param(fill) #FFF" d="M6.578 7.030v11.145h13.865v-0.464h-13.4v-10.681z"></path>
      <path fill="param(fill) #FFF" style="fill: param(fill) #FFF" d="M8.673 15.421h1.67v2.365h-1.67v-2.365z"></path>
      <path fill="param(fill) #FFF" style="fill: param(fill) #FFF" d="M15.714 11.734h1.67v6.052h-1.67v-6.053z"></path>
      <path fill="param(fill) #FFF" style="fill: param(fill) #FFF" d="M11.020 12.916h1.67v4.87h-1.67v-4.87z"></path>
      <path fill="param(fill) #FFF" style="fill: param(fill) #FFF" d="M13.367 14.482h1.67v3.305h-1.67v-3.305z"></path>
      <path
        fill="param(fill) #FFF"
        style="fill: param(fill) #FFF"
        d="M1.808 5.19c-0.264 0-0.476 0.213-0.476 0.476v13.871c0 0.264 0.212 0.476 0.476 0.476h17.513v-0.643h-16.911c-0.205 0-0.371-0.165-0.371-0.371v-12.796c0-0.205 0.165-0.371 0.371-0.371h22.108c0.205 0 0.371 0.165 0.371 0.371v9.706h0.708v-10.244c0-0.264-0.213-0.476-0.476-0.476z"></path>
      <path fill="param(fill) #FFF" style="fill: param(fill) #FFF" d="M19.321 23.153v-3.013h-17.285c-0.795 0-1.435 0.64-1.435 1.435v0.143c0 0.795 0.64 1.435 1.435 1.435z"></path>
      <path
        fill="param(fill) #FFF"
        style="fill: param(fill) #FFF"
        d="M24.365 16.877c-2.131 0-3.858 1.727-3.858 3.858v0c0 0 0 0 0 0 0 2.131 1.727 3.858 3.858 3.858v0c0.91 0 1.747-0.315 2.406-0.842l-0.008 0.006 3.362 2.899c0 0 0.635 0.398 1.093-0.081 0.445-0.465-0.075-1.015-0.075-1.015l-3.41-2.947c0.307-0.541 0.489-1.188 0.489-1.877v-0c-0-2.131-1.727-3.858-3.858-3.858 0 0 0 0 0 0v0zM24.362 17.793c0.001 0 0.002 0 0.003 0 1.623 0 2.94 1.315 2.942 2.938v0l-2.942 0.004h2.942c0 1.624-1.317 2.941-2.941 2.942h-0c-0 0-0.001 0-0.001 0-1.624 0-2.941-1.316-2.942-2.94v-0c0-0.001 0-0.001 0-0.002 0-1.624 1.315-2.94 2.939-2.942h0z"></path>
    </symbol>
    <symbol id="icon-project-profile" viewBox="0 0 32 32">
      <title>project-profile</title>
      <path
        fill="param(fill) #FFF"
        style="fill: param(fill) #FFF"
        d="M20.618 9.344c0 0.531-0.43 0.961-0.96 0.961h-0c-0 0-0 0-0 0-0.53 0-0.96-0.43-0.961-0.96v-0c0-0 0-0 0-0.001 0-0.53 0.43-0.96 0.96-0.961h0c0 0 0.001 0 0.001 0 0.53 0 0.96 0.429 0.961 0.96v0l-0.961 0.001z"></path>
      <path
        fill="param(fill) #FFF"
        style="fill: param(fill) #FFF"
        d="M17.668 12.252c0 0.531-0.43 0.961-0.96 0.961h-0c-0 0-0 0-0 0-0.53 0-0.96-0.43-0.961-0.96v-0c0-0 0-0 0-0.001 0-0.53 0.43-0.96 0.96-0.961h0c0 0 0.001 0 0.001 0 0.53 0 0.96 0.429 0.961 0.96v0l-0.961 0.001z"></path>
      <path
        fill="param(fill) #FFF"
        style="fill: param(fill) #FFF"
        d="M15.3 10.591c0 0.531-0.43 0.961-0.96 0.961h-0c-0 0-0 0-0 0-0.53 0-0.96-0.43-0.961-0.96v-0c0-0 0-0 0-0.001 0-0.53 0.43-0.96 0.96-0.961h0c0 0 0.001 0 0.001 0 0.53 0 0.96 0.429 0.961 0.96v0l-0.961 0.001z"></path>
      <path fill="param(fill) #FFF" style="fill: param(fill) #FFF" d="M19.579 9.265l-2.884 2.843-2.367-1.661-2.642 2.514 0.153 0.161 2.51-2.389 2.369 1.663 3.016-2.973z"></path>
      <path
        fill="param(fill) #FFF"
        style="fill: param(fill) #FFF"
        d="M12.25 13.535c0 0.531-0.43 0.961-0.96 0.961h-0c-0 0-0 0-0 0-0.53 0-0.96-0.43-0.961-0.96v-0c0-0 0-0 0-0.001 0-0.53 0.43-0.96 0.96-0.961h0c0 0 0.001 0 0.001 0 0.53 0 0.96 0.429 0.961 0.96v0l-0.961 0.001z"></path>
      <path fill="param(fill) #FFF" style="fill: param(fill) #FFF" d="M7.72 7.47v13.311h16.56v-0.555h-16.005v-12.757z"></path>
      <path fill="param(fill) #FFF" style="fill: param(fill) #FFF" d="M10.222 17.492h1.994v2.825h-1.994v-2.825z"></path>
      <path fill="param(fill) #FFF" style="fill: param(fill) #FFF" d="M18.633 13.088h1.994v7.229h-1.994v-7.229z"></path>
      <path fill="param(fill) #FFF" style="fill: param(fill) #FFF" d="M13.025 14.501h1.994v5.816h-1.994v-5.816z"></path>
      <path fill="param(fill) #FFF" style="fill: param(fill) #FFF" d="M15.829 16.37h1.994v3.947h-1.994v-3.947z"></path>
      <path
        fill="param(fill) #FFF"
        style="fill: param(fill) #FFF"
        d="M2.024 5.273c-0.315 0-0.569 0.254-0.569 0.569v16.568c0 0.315 0.254 0.569 0.569 0.569h27.843c0.315 0 0.569-0.254 0.569-0.569v-16.568c0-0.315-0.254-0.569-0.569-0.569zM2.743 6.041h26.405c0.245 0 0.443 0.198 0.443 0.443v15.284c0 0.245-0.198 0.443-0.443 0.443h-26.405c-0.245 0-0.443-0.197-0.443-0.443v-15.284c0-0.245 0.198-0.443 0.443-0.443z"></path>
      <path fill="param(fill) #FFF" style="fill: param(fill) #FFF" d="M2.296 23.129h27.409c0.946 0 1.714 0.767 1.714 1.714v0.171c0 0.946-0.767 1.714-1.714 1.714h-27.409c-0.946 0-1.714-0.767-1.714-1.714v-0.171c0-0.946 0.767-1.714 1.714-1.714z"></path>
    </symbol>
    <symbol id="icon-company-overview" viewBox="0 0 42 32">
      <title>company-overview</title>
      <path
        fill="param(fill) #FFF"
        style="fill: param(fill) #FFF"
        d="M33.817 26.785l-25.986 0.069c-0.002-0-0.004-0-0.006-0-0.258 0-0.466 0.209-0.466 0.466s0.209 0.466 0.466 0.466c0.003 0 0.006-0 0.009-0h-0l25.986-0.069c0.002 0 0.004 0 0.006 0 0.258 0 0.466-0.209 0.466-0.466s-0.209-0.466-0.466-0.466c-0.003 0-0.006 0-0.009 0h0z"></path>
      <path
        fill="param(fill) #FFF"
        style="fill: param(fill) #FFF"
        d="M33.817 22.638l-25.986 0.069c-0.002-0-0.004-0-0.006-0-0.258 0-0.466 0.209-0.466 0.466s0.209 0.466 0.466 0.466c0.003 0 0.006-0 0.009-0h-0l25.986-0.069c0.002 0 0.004 0 0.006 0 0.258 0 0.466-0.209 0.466-0.466s-0.209-0.466-0.466-0.466c-0.003 0-0.006 0-0.009 0h0z"></path>
      <path
        fill="param(fill) #FFF"
        style="fill: param(fill) #FFF"
        d="M33.817 18.49l-25.986 0.069c-0.002-0-0.004-0-0.006-0-0.258 0-0.466 0.209-0.466 0.466s0.209 0.466 0.466 0.466c0.003 0 0.006-0 0.009-0h-0l25.986-0.069c0.002 0 0.004 0 0.006 0 0.258 0 0.466-0.209 0.466-0.466s-0.209-0.466-0.466-0.466c-0.003 0-0.006 0-0.009 0h0z"></path>
      <path
        fill="param(fill) #FFF"
        style="fill: param(fill) #FFF"
        d="M34.723 6.186c0 0.442-0.359 0.801-0.801 0.801v0c-0 0-0 0-0 0-0.442 0-0.801-0.358-0.801-0.801v-0c0-0 0-0 0-0 0-0.442 0.358-0.801 0.8-0.801h0c0 0 0.001 0 0.001 0 0.442 0 0.801 0.358 0.801 0.8v0l-0.801 0.001z"></path>
      <path
        fill="param(fill) #FFF"
        style="fill: param(fill) #FFF"
        d="M32.263 8.611c0 0.442-0.359 0.801-0.801 0.801v0c-0 0-0 0-0 0-0.442 0-0.801-0.358-0.801-0.801v-0c0-0 0-0 0-0.001 0-0.442 0.358-0.801 0.8-0.801h0c0 0 0 0 0.001 0 0.442 0 0.801 0.358 0.801 0.8v0l-0.801 0.001z"></path>
      <path
        fill="param(fill) #FFF"
        style="fill: param(fill) #FFF"
        d="M30.288 7.225c0 0.442-0.359 0.801-0.801 0.801v0c-0 0-0 0-0 0-0.442 0-0.801-0.358-0.801-0.801v-0c0-0 0-0 0-0 0-0.442 0.358-0.801 0.8-0.801h0c0 0 0 0 0.001 0 0.442 0 0.801 0.358 0.801 0.8v0l-0.801 0.001z"></path>
      <path fill="param(fill) #FFF" style="fill: param(fill) #FFF" d="M33.857 6.12l-2.405 2.371-1.974-1.385-2.203 2.097 0.128 0.134 2.093-1.992 1.976 1.387 2.515-2.479z"></path>
      <path
        fill="param(fill) #FFF"
        style="fill: param(fill) #FFF"
        d="M27.745 9.68c0 0.442-0.359 0.801-0.801 0.801v0c-0 0-0 0-0 0-0.442 0-0.801-0.358-0.801-0.801v-0c0-0 0-0 0-0.001 0-0.442 0.358-0.801 0.8-0.801h0c0 0 0 0 0.001 0 0.442 0 0.801 0.358 0.801 0.8v0l-0.801 0.001z"></path>
      <path fill="param(fill) #FFF" style="fill: param(fill) #FFF" d="M23.967 4.622v11.101h13.81v-0.463h-13.348v-10.639z"></path>
      <path
        fill="param(fill) #FFF"
        style="fill: param(fill) #FFF"
        d="M12.341 8.472c0 1.916-1.553 3.469-3.468 3.469h-0c-0 0-0.001 0-0.001 0-1.915 0-3.468-1.552-3.469-3.467v-0c0-0.001 0-0.001 0-0.002 0-1.915 1.551-3.467 3.466-3.469h0c0.001 0 0.002 0 0.003 0 1.914 0 3.467 1.551 3.469 3.464v0l-3.469 0.004z"></path>
      <path
        fill="param(fill) #FFF"
        style="fill: param(fill) #FFF"
        d="M5.829 0c-3.213 0-5.829 2.462-5.829 5.531v20.937c0 3.069 2.616 5.531 5.829 5.531h30.338c3.213 0 5.829-2.462 5.829-5.531v-20.937c0-3.069-2.616-5.531-5.829-5.531zM5.829 0.686h30.338c2.865 0 5.143 2.166 5.143 4.845v20.937c0 2.68-2.278 4.845-5.143 4.845h-30.338c-2.865 0-5.143-2.165-5.143-4.845v-20.937c0-2.679 2.278-4.845 5.143-4.845z"></path>
      <path fill="param(fill) #FFF" style="fill: param(fill) #FFF" d="M26.054 12.98h1.663v2.356h-1.663v-2.356z"></path>
      <path fill="param(fill) #FFF" style="fill: param(fill) #FFF" d="M33.068 9.308h1.663v6.029h-1.663v-6.029z"></path>
      <path fill="param(fill) #FFF" style="fill: param(fill) #FFF" d="M28.392 10.486h1.663v4.851h-1.663v-4.851z"></path>
      <path fill="param(fill) #FFF" style="fill: param(fill) #FFF" d="M30.73 12.045h1.663v3.292h-1.663v-3.292z"></path>
    </symbol>
    <symbol id="icon-projects" viewBox="0 0 32 32">
      <title>projects</title>
      <path
        fill="param(fill) #FFF"
        style="fill: param(fill) #FFF"
        d="M3.837 4.079c-1.302 0.003-2.074 0.776-2.463 1.511s-0.45 1.461-0.45 1.461l0.298 0.026h-0.3v18.017l0.599 0.011c0 0 0.026-0.623 0.332-1.236s0.833-1.193 1.984-1.193c1.168 0 1.693 0.58 1.995 1.192s0.321 1.233 0.321 1.233l0.599-0.007v-18.025l-0-0.007c0 0-0.033-0.732-0.41-1.473s-1.157-1.514-2.506-1.511zM3.838 4.678c1.132-0.003 1.66 0.573 1.971 1.183 0.31 0.609 0.345 1.224 0.345 1.228v16.154c-0.425-0.617-1.158-1.166-2.316-1.166s-1.892 0.56-2.316 1.184v-16.164c0.001-0.010 0.060-0.619 0.382-1.227 0.325-0.613 0.86-1.189 1.935-1.192z"></path>
      <path
        fill="param(fill) #FFF"
        style="fill: param(fill) #FFF"
        d="M6.154 6.777v18.317h0.599v-17.717l23.726 0.026v19.92h-26.715c-0.008-0.001-0.925-0.060-1.588-0.74-0.51-0.522-0.656-1.524-0.656-1.524l-0.595 0.070c0 0 0.104 1.137 0.823 1.872 0.847 0.867 1.988 0.92 1.988 0.92l0.008 0h27.336v-21.118z"></path>
      <path
        fill="param(fill) #FFF"
        style="fill: param(fill) #FFF"
        d="M8.774 25.021c-0.001-0-0.003-0-0.004-0-0.165 0-0.3 0.134-0.3 0.3s0.134 0.3 0.3 0.3c0.001 0 0.003 0 0.004-0h18.184c0.001 0 0.003 0 0.004 0 0.165 0 0.3-0.134 0.3-0.3s-0.134-0.3-0.3-0.3c-0.001 0-0.003 0-0.004 0h0z"></path>
      <path
        fill="param(fill) #FFF"
        style="fill: param(fill) #FFF"
        d="M8.774 22.828c-0.001-0-0.003-0-0.004-0-0.165 0-0.3 0.134-0.3 0.3s0.134 0.3 0.3 0.3c0.001 0 0.003 0 0.004-0h18.184c0.001 0 0.003 0 0.004 0 0.165 0 0.3-0.134 0.3-0.3s-0.134-0.3-0.3-0.3c-0.001 0-0.003 0-0.004 0h0z"></path>
      <path fill="param(fill) #FFF" style="fill: param(fill) #FFF" d="M9.625 9.43v10.853h16.837v-0.562h-16.276v-10.291z"></path>
      <path fill="param(fill) #FFF" style="fill: param(fill) #FFF" d="M24.284 11.074l-6.552 5.724-2.004-1.293-0.338 0.009-4.811 3.467 0.35 0.486 4.645-3.348 2.022 1.304 0.36-0.026 6.722-5.873z"></path>
      <path fill="param(fill) #FFF" style="fill: param(fill) #FFF" d="M25.523 10.39l-0.773 2.267-1.577-1.805z"></path>
    </symbol>
    <symbol id="icon-events" viewBox="0 0 32 32">
    <title>events</title>
    <path fill="param(fill) #FFF" style="fill: param(fill) #FFF" d="M0.552 9.239v15.487c0 1.174 0.996 2.115 2.214 2.115h26.469c1.218 0 2.214-0.941 2.214-2.115v-15.487zM0.93 9.618h30.14v15.109c0 0.96-0.81 1.737-1.836 1.737h-26.469c-1.025 0-1.836-0.776-1.836-1.737z"></path>
    <path fill="param(fill) #FFF" style="fill: param(fill) #FFF" d="M2.766 5.159c-0.595 0-1.135 0.158-1.538 0.428s-0.676 0.666-0.676 1.117v2.261h30.896v-2.261c0-0.451-0.273-0.847-0.676-1.117s-0.943-0.428-1.538-0.428zM2.766 5.537h26.469c0.527 0 0.999 0.144 1.328 0.364s0.508 0.503 0.508 0.803v1.883h-30.14v-1.883c0-0.3 0.179-0.583 0.508-0.803s0.801-0.364 1.328-0.364z"></path>
    <path fill="param(fill) #FFF" style="fill: param(fill) #FFF" d="M2.455 10.921v0.233h27.090v-0.233z"></path>
    <path fill="param(fill) #FFF" style="fill: param(fill) #FFF" d="M2.455 14.348v0.233h27.090v-0.233z"></path>
    <path fill="param(fill) #FFF" style="fill: param(fill) #FFF" d="M2.455 17.776v0.233h27.090v-0.233z"></path>
    <path fill="param(fill) #FFF" style="fill: param(fill) #FFF" d="M2.455 21.203v0.233h27.090v-0.233z"></path>
    <path fill="param(fill) #FFF" style="fill: param(fill) #FFF" d="M2.455 24.63v0.233h27.090v-0.233z"></path>
    <path fill="param(fill) #FFF" style="fill: param(fill) #FFF" d="M3.071 11.149v13.569h0.233v-13.569z"></path>
    <path fill="param(fill) #FFF" style="fill: param(fill) #FFF" d="M18.368 11.149v13.569h0.233v-13.569z"></path>
    <path fill="param(fill) #FFF" style="fill: param(fill) #FFF" d="M13.269 11.149v13.569h0.233v-13.569z"></path>
    <path fill="param(fill) #FFF" style="fill: param(fill) #FFF" d="M28.567 11.149v13.569h0.233v-13.569z"></path>
    <path fill="param(fill) #FFF" style="fill: param(fill) #FFF" d="M8.17 11.149v13.569h0.233v-13.569z"></path>
    <path fill="param(fill) #FFF" style="fill: param(fill) #FFF" d="M23.468 11.206v13.569h0.233v-13.569z"></path>
    <path fill="param(fill) #FFF" style="fill: param(fill) #FFF" d="M20.949 11.391c-0.75 0-1.36 0.61-1.36 1.36s0.61 1.36 1.36 1.36c0.75 0 1.36-0.61 1.36-1.36s-0.61-1.36-1.36-1.36zM20.949 11.573c0.652 0 1.178 0.527 1.178 1.178s-0.526 1.178-1.178 1.178c-0.652 0-1.178-0.526-1.178-1.178s0.526-1.178 1.178-1.178z"></path>
    <path fill="param(fill) #FFF" style="fill: param(fill) #FFF" d="M20.012 12.777c0 0 0.304 0.239 0.416 0.394 0.103 0.143 0.224 0.48 0.224 0.48l0.224-0.043c0 0 0.381-0.836 0.65-1.204 0.275-0.375 0.954-0.997 0.954-0.997s-0.699 0.29-1.103 0.719c-0.323 0.344-0.586 0.879-0.586 0.879s-0.145-0.192-0.261-0.272c-0.069-0.047-0.162-0.101-0.245-0.096-0.1 0.007-0.272 0.139-0.272 0.139z"></path>
    <path fill="param(fill) #FFF" style="fill: param(fill) #FFF" d="M26.049 21.673c-0.75 0-1.36 0.61-1.36 1.36s0.61 1.36 1.36 1.36c0.75 0 1.36-0.61 1.36-1.36s-0.61-1.36-1.36-1.36zM26.049 21.855c0.652 0 1.178 0.526 1.178 1.178s-0.526 1.178-1.178 1.178c-0.652 0-1.178-0.526-1.178-1.178s0.527-1.178 1.178-1.178z"></path>
    <path fill="param(fill) #FFF" style="fill: param(fill) #FFF" d="M25.112 23.059c0 0 0.304 0.239 0.416 0.394 0.103 0.143 0.224 0.48 0.224 0.48l0.224-0.043c0 0 0.381-0.836 0.65-1.204 0.275-0.375 0.954-0.997 0.954-0.997s-0.699 0.29-1.103 0.719c-0.323 0.344-0.586 0.879-0.586 0.879s-0.145-0.192-0.261-0.272c-0.069-0.047-0.162-0.101-0.245-0.096-0.1 0.007-0.272 0.139-0.272 0.139z"></path>
    <path fill="param(fill) #FFF" style="fill: param(fill) #FFF" d="M5.651 18.245c-0.75 0-1.36 0.61-1.36 1.36s0.61 1.36 1.36 1.36c0.75 0 1.36-0.61 1.36-1.36s-0.61-1.36-1.36-1.36zM5.651 18.427c0.652 0 1.178 0.526 1.178 1.178s-0.526 1.178-1.178 1.178c-0.652 0-1.178-0.526-1.178-1.178s0.527-1.178 1.178-1.178z"></path>
    <path fill="param(fill) #FFF" style="fill: param(fill) #FFF" d="M4.715 19.631c0 0 0.304 0.239 0.416 0.394 0.103 0.143 0.224 0.48 0.224 0.48l0.224-0.043c0 0 0.381-0.836 0.65-1.204 0.275-0.375 0.954-0.997 0.954-0.997s-0.699 0.29-1.103 0.719c-0.323 0.344-0.586 0.879-0.586 0.879s-0.145-0.192-0.261-0.272c-0.069-0.047-0.162-0.101-0.245-0.096-0.1 0.007-0.272 0.139-0.272 0.139z"></path>
    <path fill="param(fill) #FFF" style="fill: param(fill) #FFF" d="M1.54 8.163h28.92v-1.331c0-0.482-0.856-0.871-1.919-0.871h-25.083c-1.063 0-1.919 0.388-1.919 0.871z"></path>
    </symbol>
    <symbol id="icon-training" viewBox="0 0 32 32">
    <title>Training</title>
    <path fill="param(fill) #FFF" style="fill: param(fill) #FFF" d="M25.688 9.506l-3.288 0.002v0.603l2.9-0.002c0.050 0.109 0.128 0.271 0.267 0.615 0.179 0.441 0.371 0.985 0.425 1.311 0.107 0.657 0.128 2.133 0.128 2.133l0.001 0.084 1.412 2.289 0.009 0.012c0 0 0.288 0.381 0.615 0.866s0.69 1.085 0.821 1.446c0.086 0.237 0.056 0.371-0.008 0.507s-0.181 0.261-0.297 0.398c-0.13 0.156-0.539 0.253-0.94 0.249s-0.75-0.074-0.75-0.074l-0.366-0.075 0.057 4.923c0 0.001-0.034 0.631-0.404 0.971-0.345 0.317-0.592 0.449-0.734 0.503-0.071 0.027-0.116 0.036-0.137 0.038-0.004 0.001-0.005 0.001-0.006 0.001l-0.017-0.002-3.53 0.232c0 0-0.105 0.019-0.222 0.074-0.058 0.027-0.125 0.063-0.191 0.131s-0.136 0.185-0.134 0.32c0.015 1.010 0.096 3.364 0.11 3.761l-14.9-0.063c0.153-0.571 0.966-3.622 1.167-5.492 0.053-0.488-0.047-1.018-0.2-1.453-0.161-0.456-0.449-0.781-0.692-1.024-1.345-1.348-2.374-2.796-2.995-4.449-0.49-1.304-0.806-2.713-0.813-4.095-0.009-1.777 0.62-3.658 0.785-4.122l5.713-0.003v-0.603l-6.135 0.004-0.074 0.194c0 0-0.903 2.334-0.892 4.533 0.007 1.472 0.341 2.946 0.851 4.304 0.657 1.75 1.743 3.272 3.133 4.663 0.221 0.222 0.434 0.471 0.55 0.798 0.128 0.362 0.207 0.835 0.169 1.188-0.207 1.924-1.246 5.778-1.246 5.778l-0.103 0.379 16.303 0.069-0.011-0.313c0 0-0.097-2.834-0.116-3.966 0.022-0.008 0.043-0.015 0.049-0.017l3.43-0.223c0.026 0 0.056-0 0.087-0.004 0.072-0.009 0.167-0.030 0.281-0.073 0.229-0.088 0.537-0.266 0.926-0.622 0.61-0.559 0.6-1.406 0.6-1.406v-0.004l-0.049-4.212c0.146 0.017 0.307 0.035 0.5 0.037 0.468 0.004 1.050-0.038 1.407-0.466 0.088-0.106 0.261-0.276 0.379-0.527s0.166-0.597 0.029-0.971c-0.175-0.482-0.551-1.077-0.888-1.577-0.33-0.49-0.611-0.861-0.622-0.876l-1.313-2.129c-0.001-0.138-0.013-1.402-0.134-2.139-0.071-0.437-0.275-0.983-0.461-1.44s-0.356-0.819-0.356-0.819zM20.457 9.509l-5.006 0.003v0.603l5.006-0.003zM13.509 9.513l-2.092 0.001v0.603l2.092-0.001z"></path>
    <path fill="param(fill) #FFF" style="fill: param(fill) #FFF" d="M6.085 3.007l-0.334 0.364 4.548 4.181-0.216 5.39-2.32 2.247 0.344 0.355 2.462-2.385 0.233-5.816z"></path>
    <path fill="param(fill) #FFF" style="fill: param(fill) #FFF" d="M14.27 3.955v11.087l1.622 2.047 0.387-0.307-1.515-1.912v-10.915z"></path>
    <path fill="param(fill) #FFF" style="fill: param(fill) #FFF" d="M21.181 3.824v8.293h0.494v-8.293z"></path>
    <path fill="param(fill) #FFF" style="fill: param(fill) #FFF" d="M23.184 3.637c0 0.97-0.786 1.756-1.756 1.756s-1.756-0.786-1.756-1.756c0-0.97 0.786-1.756 1.756-1.756s1.756 0.786 1.756 1.756z"></path>
    <path fill="param(fill) #FFF" style="fill: param(fill) #FFF" d="M6.964 14.634c-0.774 0-1.405 0.631-1.405 1.405s0.631 1.405 1.405 1.405c0.774 0 1.405-0.631 1.405-1.405s-0.631-1.405-1.405-1.405zM6.964 14.981c0.587 0 1.058 0.472 1.058 1.058s-0.472 1.058-1.058 1.058c-0.587 0-1.058-0.472-1.058-1.058s0.472-1.058 1.058-1.058z"></path>
    <path fill="param(fill) #FFF" style="fill: param(fill) #FFF" d="M16.871 16.502c-0.774 0-1.405 0.631-1.405 1.405s0.631 1.405 1.405 1.405c0.774 0 1.405-0.631 1.405-1.405s-0.631-1.405-1.405-1.405zM16.871 16.848c0.587 0 1.058 0.472 1.058 1.058s-0.472 1.058-1.058 1.058c-0.587 0-1.058-0.472-1.058-1.058s0.472-1.058 1.058-1.058z"></path>
    <path fill="param(fill) #FFF" style="fill: param(fill) #FFF" d="M21.428 12.026c-0.774 0-1.405 0.631-1.405 1.405s0.631 1.405 1.405 1.405c0.774 0 1.405-0.631 1.405-1.405s-0.631-1.405-1.405-1.405zM21.428 12.373c0.587 0 1.058 0.472 1.058 1.058s-0.472 1.058-1.058 1.058c-0.587 0-1.058-0.472-1.058-1.058s0.472-1.058 1.058-1.058z"></path>
    <path fill="param(fill) #FFF" style="fill: param(fill) #FFF" d="M8.645 4.085c0 0.97-0.786 1.756-1.756 1.756s-1.756-0.786-1.756-1.756c0-0.97 0.786-1.756 1.756-1.756s1.756 0.786 1.756 1.756z"></path>
    <path fill="param(fill) #FFF" style="fill: param(fill) #FFF" d="M16.292 2.33c0 0.97-0.786 1.756-1.756 1.756s-1.756-0.786-1.756-1.756c0-0.97 0.786-1.756 1.756-1.756s1.756 0.786 1.756 1.756z"></path>
    </symbol>
    <symbol id="icon-job-search" viewBox="0 0 32 32">
    <title>job-search</title>
    <path fill="param(fill) #FFF" style="fill: param(fill) #FFF" d="M6.956 6.44c-0.719-0.025-1.437 0.073-2.123 0.291l-0.212 0.067 0.292 1.186-1.4 0.822-0.889-0.829-0.162 0.152c-0.524 0.492-0.96 1.071-1.289 1.711l-0.101 0.197 1.037 0.627-0.409 1.571-1.218 0.043-0.007 0.222c-0.022 0.719 0.081 1.436 0.302 2.121l0.068 0.21 1.175-0.289 0.822 1.4-0.83 0.89 0.152 0.162c0.492 0.524 1.071 0.96 1.711 1.289l0.197 0.101 0.627-1.037 1.571 0.409 0.043 1.216 0.223 0.006c0.719 0.021 1.436-0.082 2.12-0.304l0.21-0.068-0.288-1.171 1.4-0.822 0.885 0.825 0.162-0.151c0.526-0.49 0.964-1.067 1.295-1.706l0.102-0.197-1.040-0.629 0.409-1.571 1.213-0.043 0.007-0.222c0.023-0.719-0.077-1.436-0.297-2.121l-0.068-0.211-1.176 0.29-0.822-1.4 0.828-0.888-0.151-0.162c-0.491-0.525-1.069-0.962-1.709-1.292l-0.197-0.102-0.629 1.040-1.571-0.409-0.043-1.216zM6.719 6.916l0.039 1.118 2.256 0.587 0.578-0.955c0.45 0.254 0.863 0.566 1.229 0.93l-0.761 0.816 1.18 2.010 1.081-0.266c0.139 0.497 0.21 1.010 0.213 1.526l-1.113 0.039-0.587 2.256 0.955 0.578c-0.255 0.449-0.568 0.861-0.932 1.227l-0.813-0.758-2.010 1.18 0.265 1.077c-0.497 0.141-1.009 0.214-1.525 0.219l-0.039-1.115-2.256-0.587-0.577 0.953c-0.45-0.253-0.864-0.564-1.231-0.927l0.762-0.817-1.18-2.010-1.081 0.266c-0.14-0.497-0.213-1.009-0.217-1.526l1.117-0.039 0.587-2.256-0.953-0.577c0.253-0.45 0.564-0.864 0.927-1.231l0.817 0.761 2.010-1.18-0.268-1.089c0.498-0.138 1.011-0.208 1.528-0.209zM6.57 8.987c-1.586 0.075-3.010 1.168-3.43 2.784-0.517 1.989 0.679 4.027 2.668 4.544s4.027-0.679 4.544-2.668c0.517-1.989-0.679-4.027-2.668-4.544-0.373-0.097-0.748-0.134-1.114-0.116zM6.591 9.46c0.32-0.015 0.647 0.018 0.973 0.102 1.74 0.453 2.781 2.224 2.328 3.965s-2.224 2.781-3.965 2.328c-1.74-0.453-2.781-2.224-2.328-3.965 0.368-1.414 1.606-2.366 2.991-2.43z"></path>
    <path fill="param(fill) #FFF" style="fill: param(fill) #FFF" d="M20.118 2.031c-0.212 0-0.425 0.009-0.637 0.028l-0.262 0.023 0.029 1.445-1.829 0.585-0.812-1.189-0.226 0.133c-0.733 0.432-1.387 0.987-1.933 1.641l-0.168 0.201 1.035 0.994-0.88 1.707-1.417-0.267-0.065 0.255c-0.212 0.825-0.28 1.679-0.202 2.527l0.024 0.26 1.432-0.029 0.585 1.829-1.189 0.812 0.134 0.226c0.432 0.733 0.987 1.387 1.641 1.933l0.201 0.168 0.994-1.035 1.707 0.88-0.267 1.415 0.255 0.065c0.825 0.211 1.679 0.278 2.527 0.2l0.26-0.024-0.029-1.427 1.829-0.585 0.807 1.183 0.226-0.132c0.735-0.429 1.391-0.981 1.939-1.633l0.169-0.201-1.038-0.997 0.88-1.707 1.411 0.266 0.066-0.254c0.214-0.824 0.284-1.678 0.209-2.526l-0.023-0.261-1.434 0.029-0.585-1.829 1.187-0.81-0.133-0.226c-0.431-0.734-0.985-1.389-1.637-1.936l-0.201-0.169-0.997 1.037-1.707-0.88 0.267-1.415-0.253-0.066c-0.618-0.162-1.253-0.244-1.89-0.243zM20.119 2.593c0.502-0 1.001 0.061 1.492 0.169l-0.245 1.301 2.452 1.264 0.915-0.953c0.453 0.41 0.849 0.878 1.178 1.393l-1.091 0.745 0.84 2.628 1.317-0.026c0.031 0.61-0.019 1.22-0.15 1.817l-1.296-0.244-1.264 2.452 0.952 0.915c-0.411 0.452-0.879 0.847-1.395 1.174l-0.742-1.087-2.628 0.84 0.026 1.313c-0.61 0.033-1.22-0.015-1.818-0.144l0.245-1.298-2.452-1.264-0.913 0.951c-0.454-0.409-0.85-0.876-1.18-1.39l1.091-0.745-0.84-2.628-1.317 0.026c-0.033-0.61 0.016-1.221 0.145-1.818l1.3 0.245 1.264-2.452-0.951-0.913c0.409-0.454 0.876-0.85 1.39-1.18l0.745 1.091 2.628-0.84-0.027-1.327c0.109-0.005 0.218-0.014 0.327-0.014zM20.046 5.050c-1.564 0.035-3.063 0.902-3.829 2.388-1.114 2.162-0.262 4.826 1.9 5.94s4.826 0.262 5.94-1.9v-0c1.114-2.162 0.262-4.826-1.9-5.94-0.676-0.348-1.4-0.504-2.111-0.488zM20.056 5.609c0.62-0.013 1.253 0.124 1.844 0.429 1.892 0.975 2.633 3.291 1.658 5.183s-3.291 2.633-5.183 1.658c-1.892-0.975-2.633-3.291-1.658-5.183 0.67-1.301 1.974-2.057 3.339-2.086z"></path>
    <path fill="param(fill) #FFF" style="fill: param(fill) #FFF" d="M10.722 18.050c-0.492-0.017-0.984 0.050-1.453 0.199l-0.145 0.046 0.2 0.812-0.958 0.562-0.609-0.568-0.111 0.104c-0.359 0.337-0.657 0.733-0.882 1.171l-0.069 0.135 0.71 0.429-0.28 1.075-0.834 0.029-0.005 0.152c-0.015 0.492 0.055 0.983 0.207 1.452l0.047 0.144 0.804-0.198 0.563 0.958-0.568 0.609 0.104 0.111c0.337 0.359 0.733 0.657 1.171 0.882l0.135 0.069 0.429-0.71 1.075 0.28 0.029 0.833 0.152 0.004c0.492 0.014 0.983-0.056 1.451-0.208l0.144-0.047-0.197-0.802 0.958-0.563 0.606 0.565 0.111-0.103c0.36-0.335 0.66-0.73 0.887-1.168l0.070-0.135-0.712-0.431 0.28-1.075 0.83-0.029 0.005-0.152c0.016-0.492-0.053-0.983-0.203-1.452l-0.046-0.144-0.805 0.198-0.562-0.958 0.567-0.608-0.104-0.111c-0.336-0.36-0.732-0.659-1.17-0.884l-0.135-0.070-0.431 0.712-1.075-0.28-0.029-0.832zM10.559 18.376l0.027 0.765 1.544 0.402 0.395-0.654c0.308 0.174 0.59 0.387 0.841 0.636l-0.521 0.559 0.808 1.376 0.74-0.182c0.095 0.34 0.144 0.691 0.146 1.044l-0.762 0.027-0.402 1.544 0.654 0.395c-0.174 0.307-0.389 0.589-0.638 0.84l-0.557-0.519-1.376 0.808 0.181 0.737c-0.34 0.096-0.691 0.147-1.044 0.15l-0.027-0.764-1.544-0.402-0.395 0.652c-0.308-0.173-0.591-0.386-0.843-0.635l0.521-0.559-0.808-1.376-0.74 0.182c-0.096-0.34-0.146-0.691-0.149-1.044l0.765-0.027 0.402-1.544-0.652-0.395c0.173-0.308 0.386-0.591 0.635-0.843l0.559 0.521 1.376-0.808-0.184-0.745c0.341-0.094 0.692-0.142 1.046-0.143zM10.71 19.794c-1.184-0.062-2.29 0.714-2.6 1.905-0.354 1.361 0.465 2.756 1.826 3.11s2.756-0.465 3.11-1.826c0.354-1.361-0.465-2.756-1.826-3.11-0.17-0.044-0.341-0.070-0.51-0.079zM10.692 20.118c0.148 0.008 0.297 0.031 0.446 0.069 1.191 0.31 1.903 1.523 1.593 2.714s-1.523 1.903-2.714 1.593c-1.191-0.31-1.903-1.523-1.593-2.714 0.271-1.042 1.234-1.718 2.268-1.663z"></path>
    <path fill="param(fill) #FFF" style="fill: param(fill) #FFF" d="M19.337 12.755c-3.692 0-6.685 2.993-6.685 6.685v0c0 0 0 0 0 0 0 3.692 2.993 6.685 6.685 6.685v0c1.577 0 3.027-0.546 4.17-1.46l-0.013 0.010 5.827 5.024c0 0 1.101 0.689 1.895-0.14 0.771-0.805-0.131-1.76-0.131-1.76l-5.91-5.107c0.532-0.937 0.847-2.058 0.848-3.253v-0c-0-3.692-2.993-6.685-6.685-6.685 0 0-0 0-0 0v0zM19.332 14.342c0.001 0 0.003 0 0.005 0 2.813 0 5.094 2.279 5.098 5.091v0l-5.098 0.006h5.098c0 2.815-2.282 5.097-5.096 5.098h-0c-0 0-0.001 0-0.002 0-2.814 0-5.096-2.28-5.098-5.094v-0c0-0.001 0-0.002 0-0.003 0-2.814 2.28-5.095 5.093-5.098h0z"></path>
    <path fill="param(fill) #FFF" style="fill: param(fill) #FFF" d="M16.26 17.441c-0.711 0.331-1.199 1.068-1.2 1.925v0c0.001 0.952 0.602 1.756 1.425 2.013l0.014 0.004c-0.481-0.469-0.792-1.238-0.793-2.109v-0c0-0.719 0.212-1.368 0.553-1.834l0-0z"></path>
    </symbol>
    <symbol id="icon-news" viewBox="0 0 32 32">
<title>news</title>
<path fill="param(fill) #FFF" style="fill: param(fill) #FFF" d="M10.956 1.867c-2.162 0.001-4.222 0.004-5.874 0.011-1.101 0.005-2.021 0.011-2.67 0.018-0.324 0.004-0.581 0.008-0.76 0.012-0.090 0.002-0.16 0.005-0.213 0.008-0.027 0.002-0.049 0.003-0.073 0.005-0.012 0.001-0.024 0.003-0.046 0.007-0.011 0.002-0.024 0.004-0.049 0.012s-0.149 0.089-0.149 0.090l-0.125 0.123v0.891h-0.008c-0.001 0.098-0.002 0.199-0.003 0.32-0.005 0.672-0.006 1.626-0.006 2.767 0.001 2.282 0.012 5.315 0.026 8.345 0.028 6.059 0.068 12.106 0.068 12.106v0.012l0.001 0.012c0 0 0.083 1.431 1.183 2.406 0.975 0.864 2.379 1.113 2.379 1.113l0.037 0.007 22.676-0.2 0.115-0.729c-1.003-0.331-1.262-0.74-1.609-1.25-0.325-0.477-0.525-0.884-0.606-1.663 0-0.028 0.012-5.977 0.018-11.961 0.003-2.999 0.004-6 0.002-8.255-0.001-1.128-0.004-2.069-0.007-2.731-0.002-0.331-0.003-0.592-0.006-0.773-0.001-0.090-0.003-0.16-0.004-0.211-0.001-0.026-0.002-0.046-0.003-0.066-0.001-0.010-0.001-0.019-0.003-0.035-0.001-0.008-0.002-0.017-0.006-0.037s-0.087-0.174-0.088-0.175-0.162-0.107-0.186-0.113c-0.024-0.006-0.034-0.007-0.044-0.009-0.019-0.003-0.029-0.003-0.039-0.004-0.021-0.002-0.042-0.003-0.067-0.004-0.051-0.002-0.119-0.004-0.207-0.006-0.177-0.004-0.43-0.007-0.753-0.010-0.645-0.007-1.562-0.013-2.662-0.018-2.198-0.010-5.125-0.017-8.052-0.018l0 0c-0.732-0-1.464-0-2.184-0zM10.956 2.615c0.72-0 1.452-0 2.184 0l0 0c2.927 0.002 5.852 0.008 8.049 0.018 1.098 0.005 2.015 0.010 2.657 0.017 0.285 0.003 0.493 0.006 0.661 0.010 0.002 0.174 0.003 0.393 0.005 0.69 0.004 0.66 0.006 1.6 0.007 2.727 0.003 2.254 0.002 5.255-0.002 8.254-0.006 5.998-0.018 11.989-0.018 11.989l-0.001 0.019 0.002 0.020c0.091 0.898 0.371 1.484 0.734 2.018 0.177 0.26 0.387 0.549 0.698 0.822l-21.181 0.186c-0.043-0.009-1.262-0.277-2.001-0.931-0.837-0.742-0.932-1.889-0.932-1.894-0-0.020-0.040-6.037-0.068-12.085-0.014-3.029-0.024-6.061-0.026-8.341-0.001-1.14 0.001-2.092 0.006-2.761 0.002-0.308 0.005-0.54 0.009-0.717 0.17-0.004 0.387-0.007 0.679-0.011 0.645-0.008 1.564-0.014 2.665-0.018 1.651-0.007 3.71-0.010 5.871-0.011z"></path>
<path fill="param(fill) #FFF" style="fill: param(fill) #FFF" d="M31.079 10.298c-0.203 0.004-0.367 0.17-0.367 0.374 0 0.002 0 0.005 0 0.007v-0l0.071 15.497c-0.006 0.028-0.095 0.421-0.256 0.901-0.167 0.497-0.445 1.056-0.608 1.202-1.233 1.103-2.521 0.91-2.521 0.91-0.018-0.003-0.038-0.005-0.059-0.005-0.207 0-0.374 0.167-0.374 0.374 0 0.191 0.143 0.348 0.328 0.371l0.002 0c0 0 1.657 0.218 3.124-1.093 0.42-0.376 0.637-0.982 0.819-1.521s0.286-1.008 0.286-1.008l0.009-0.042-0.071-15.59c0-0.001 0-0.002 0-0.004 0-0.207-0.167-0.374-0.374-0.374-0.003 0-0.005 0-0.008 0h0z"></path>
<path fill="param(fill) #FFF" style="fill: param(fill) #FFF" d="M29.225 7.683c-0.204 0.003-0.368 0.169-0.368 0.374 0 0.002 0 0.004 0 0.005v-0 19.842c-0 0.002-0 0.003-0 0.005 0 0.207 0.167 0.374 0.374 0.374s0.374-0.167 0.374-0.374c0-0.002 0-0.004-0-0.006v0-19.842c0-0.002 0-0.003 0-0.005 0-0.207-0.167-0.374-0.374-0.374-0.002 0-0.004 0-0.006 0h0z"></path>
<path fill="param(fill) #FFF" style="fill: param(fill) #FFF" d="M27.052 4.149c-0.204 0.003-0.368 0.169-0.368 0.374 0 0.002 0 0.004 0 0.005v-0 23.322c-0 0.002-0 0.003-0 0.005 0 0.207 0.167 0.374 0.374 0.374s0.374-0.167 0.374-0.374c0-0.002 0-0.004-0-0.006v0-23.322c0-0.002 0-0.003 0-0.005 0-0.207-0.167-0.374-0.374-0.374-0.002 0-0.004 0-0.006 0h0z"></path>
<path fill="param(fill) #FFF" style="fill: param(fill) #FFF" d="M11.303 7.595c0 1.866-1.768 3.379-3.948 3.379s-3.948-1.513-3.948-3.379c0-1.866 1.768-3.379 3.948-3.379s3.948 1.513 3.948 3.379z"></path>
<path fill="param(fill) #FFF" style="fill: param(fill) #FFF" d="M3.157 12.957v0.448h20.090v-0.448z"></path>
<path fill="param(fill) #FFF" style="fill: param(fill) #FFF" d="M3.157 21.418v0.448h20.090v-0.448z"></path>
<path fill="param(fill) #FFF" style="fill: param(fill) #FFF" d="M3.157 18.598v0.448h20.090v-0.448z"></path>
<path fill="param(fill) #FFF" style="fill: param(fill) #FFF" d="M3.157 15.777v0.448h20.090v-0.448z"></path>
<path fill="param(fill) #FFF" style="fill: param(fill) #FFF" d="M3.157 24.238v0.448h20.090v-0.448z"></path>
<path fill="param(fill) #FFF" style="fill: param(fill) #FFF" d="M12.752 4.497v0.449h10.494v-0.449z"></path>
<path fill="param(fill) #FFF" style="fill: param(fill) #FFF" d="M12.752 7.317v0.449h10.494v-0.449z"></path>
<path fill="param(fill) #FFF" style="fill: param(fill) #FFF" d="M12.752 10.137v0.448h10.494v-0.448z"></path>
</symbol>
<symbol id="icon-follow" viewBox="0 0 85 32">
<title>follow</title>
<path fill="param(fill) #FFF" style="fill: param(fill) #FFF" d="M14.266 21.567v-14.047h9.279v1.583h-7.498v4.689h6.311v1.484h-6.311v6.292z"></path>
<path fill="param(fill) #FFF" style="fill: param(fill) #FFF" d="M29.436 21.765q-1.167 0-2.137-0.435-0.95-0.435-1.642-1.167-0.673-0.732-1.049-1.701t-0.376-2.038q0-1.088 0.376-2.058 0.396-0.969 1.068-1.701 0.692-0.732 1.642-1.167 0.969-0.435 2.117-0.435t2.117 0.435 1.642 1.167q0.692 0.732 1.068 1.701 0.396 0.969 0.396 2.058 0 1.068-0.376 2.038t-1.068 1.701-1.662 1.167q-0.95 0.435-2.117 0.435zM26.013 16.443q0 0.811 0.257 1.504 0.277 0.692 0.732 1.207 0.475 0.514 1.088 0.811 0.633 0.297 1.345 0.297t1.326-0.297q0.633-0.297 1.108-0.811 0.475-0.534 0.732-1.227 0.277-0.712 0.277-1.523 0-0.791-0.277-1.484-0.257-0.712-0.732-1.227-0.475-0.534-1.108-0.831-0.613-0.297-1.326-0.297t-1.345 0.317q-0.613 0.297-1.088 0.831-0.455 0.514-0.732 1.227-0.257 0.692-0.257 1.504z"></path>
<path fill="param(fill) #FFF" style="fill: param(fill) #FFF" d="M36.827 7.124h1.741v11.772q0 0.574 0.297 0.91 0.317 0.317 0.871 0.317 0.218 0 0.514-0.059 0.297-0.079 0.554-0.178l0.277 1.405q-0.435 0.178-1.029 0.297t-1.049 0.119q-1.009 0-1.603-0.574-0.574-0.574-0.574-1.603z"></path>
<path fill="param(fill) #FFF" style="fill: param(fill) #FFF" d="M42.469 7.124h1.741v11.772q0 0.574 0.297 0.91 0.317 0.317 0.871 0.317 0.218 0 0.514-0.059 0.297-0.079 0.554-0.178l0.277 1.405q-0.435 0.178-1.029 0.297t-1.049 0.119q-1.009 0-1.603-0.574-0.574-0.574-0.574-1.603z"></path>
<path fill="param(fill) #FFF" style="fill: param(fill) #FFF" d="M52.582 21.765q-1.167 0-2.137-0.435-0.95-0.435-1.642-1.167-0.673-0.732-1.049-1.701t-0.376-2.038q0-1.088 0.376-2.058 0.396-0.969 1.068-1.701 0.692-0.732 1.642-1.167 0.969-0.435 2.117-0.435t2.117 0.435 1.642 1.167q0.692 0.732 1.068 1.701 0.396 0.969 0.396 2.058 0 1.068-0.376 2.038t-1.068 1.701-1.662 1.167q-0.95 0.435-2.117 0.435zM49.16 16.443q0 0.811 0.257 1.504 0.277 0.692 0.732 1.207 0.475 0.514 1.088 0.811 0.633 0.297 1.345 0.297t1.326-0.297q0.633-0.297 1.108-0.811 0.475-0.534 0.732-1.227 0.277-0.712 0.277-1.523 0-0.791-0.277-1.484-0.257-0.712-0.732-1.227-0.475-0.534-1.108-0.831-0.613-0.297-1.326-0.297t-1.345 0.317q-0.613 0.297-1.088 0.831-0.455 0.514-0.732 1.227-0.257 0.692-0.257 1.504z"></path>
<path fill="param(fill) #FFF" style="fill: param(fill) #FFF" d="M72.526 11.239h1.682l-4.392 10.328h-1.444l-2.077-5.045-2.058 5.045h-1.444l-4.392-10.328h1.662l3.561 8.606 1.741-4.293-1.781-4.293h1.444l1.266 3.304 1.266-3.304h1.444l-1.761 4.293 1.741 4.293z"></path>
<path fill="param(fill) #FFF" style="fill: param(fill) #FFF" d="M4.971 5.552c-2.967 1.623-4.971 4.771-4.971 8.404v8.47c0 5.304 4.27 9.574 9.574 9.574h61.785c3.611 0 6.742-1.98 8.374-4.917-1.364 0.746-2.932 1.17-4.603 1.17h-61.785c-5.304 0-9.574-4.27-9.574-9.574v-8.47c0-1.693 0.436-3.28 1.201-4.657z"></path>
<path fill="param(fill) #FFF" style="fill: param(fill) #FFF" d="M13.345 0c-5.645 0-10.209 4.564-10.209 10.209v8.47c0 5.645 4.564 10.21 10.209 10.21h61.785c5.645 0 10.209-4.565 10.209-10.21v-8.47c0-5.645-4.564-10.209-10.209-10.209zM13.345 1.271h61.785c4.963 0 8.939 3.976 8.939 8.939v8.47c0 4.963-3.976 8.939-8.939 8.939h-61.785c-4.963 0-8.939-3.976-8.939-8.939v-8.47c0-4.963 3.976-8.939 8.939-8.939z"></path>
</symbol>
<symbol id="icon-offset-projects" viewBox="0 0 32 32">
<title>offset-projects</title>
<path fill="param(fill) #FFF" style="fill: param(fill) #FFF" d="M3.491 4.079c-1.148 0.003-1.829 0.666-2.172 1.297s-0.397 1.254-0.397 1.254l0.263 0.023h-0.264v15.468l0.528 0.009c0 0 0.023-0.534 0.293-1.061s0.734-1.024 1.749-1.024c1.030 0 1.493 0.498 1.759 1.023s0.283 1.059 0.283 1.059l0.528-0.006v-15.474l-0-0.006c0 0-0.029-0.629-0.361-1.264s-1.020-1.3-2.209-1.297zM3.493 4.593c0.998-0.002 1.463 0.492 1.737 1.016 0.273 0.522 0.304 1.051 0.304 1.054v13.868c-0.375-0.53-1.021-1.001-2.042-1.001s-1.668 0.48-2.042 1.016v-13.877c0.001-0.009 0.053-0.531 0.337-1.054 0.286-0.526 0.758-1.021 1.706-1.023z"></path>
<path fill="param(fill) #FFF" style="fill: param(fill) #FFF" d="M5.534 6.395v15.725h0.528v-15.21l20.917 0.022v11.49h0.528v-12.004l-21.974-0.023zM1.448 22.091l-0.525 0.060c0 0 0.092 0.976 0.726 1.608 0.747 0.744 1.752 0.789 1.752 0.789l0.007 0h17.376v-0.514h-17.357c-0.007-0-0.815-0.052-1.4-0.635-0.449-0.448-0.579-1.308-0.579-1.308z"></path>
<path fill="param(fill) #FFF" style="fill: param(fill) #FFF" d="M7.844 22.058c-0.001 0-0.002-0-0.003-0-0.146 0-0.264 0.115-0.264 0.257s0.118 0.257 0.264 0.257c0.001 0 0.002 0 0.003-0h13.005l0.265-0.514h-13.27z"></path>
<path fill="param(fill) #FFF" style="fill: param(fill) #FFF" d="M7.844 20.175c-0.002-0-0.004-0-0.006-0-0.146 0-0.264 0.115-0.264 0.257s0.118 0.257 0.264 0.257c0.002 0 0.005-0 0.007-0h14.005l0.633-0.514h-14.639z"></path>
<path fill="param(fill) #FFF" style="fill: param(fill) #FFF" d="M8.595 8.673v9.318h14.844v-0.482h-14.349v-8.835z"></path>
<path fill="param(fill) #FFF" style="fill: param(fill) #FFF" d="M21.518 10.084l-5.776 4.914-1.767-1.11-0.298 0.008-4.242 2.976 0.309 0.417 4.095-2.874 1.782 1.12 0.317-0.022 5.926-5.042z"></path>
<path fill="param(fill) #FFF" style="fill: param(fill) #FFF" d="M22.61 9.497l-0.681 1.946-1.39-1.55z"></path>
<path fill="param(fill) #FFF" style="fill: param(fill) #FFF" d="M21.967 25.313c0 0 0.84-1.288 1.403-1.809 0.561-0.519 1.226-0.936 1.921-1.267 0.808-0.385 1.73-0.489 2.565-0.812 0.65-0.251 1.895-0.874 1.895-0.874s-0.51 0.618-0.834 0.849c-0.447 0.319-0.988 0.489-1.491 0.714-0.861 0.384-1.814 0.591-2.616 1.083-0.485 0.298-0.919 0.682-1.289 1.107-0.453 0.52-1.112 1.735-1.112 1.735s0.61 0.692 1.023 0.874c0.705 0.309 1.536 0.394 2.3 0.283 0.863-0.126 1.664-0.572 2.388-1.046 0.878-0.574 1.727-1.263 2.3-2.129 0.604-0.912 0.892-1.987 1.036-3.064 0.113-0.845 0.076-2.621 0.076-2.621s-0.871 0.458-1.339 0.603c-0.637 0.198-1.313 0.243-1.971 0.357-0.888 0.154-1.807 0.178-2.666 0.443-0.756 0.233-1.5 0.551-2.148 0.997-0.409 0.281-0.794 0.622-1.061 1.034-0.361 0.556-0.625 1.203-0.682 1.858-0.050 0.568 0.303 1.686 0.303 1.686z"></path>
</symbol>
<symbol id="icon-close" viewBox="0 0 32 32">
<title>close</title>
<path fill="param(fill) #FFF" style="fill: param(fill) #FFF" d="M16 0.704c-0 0-0 0-0 0-8.448 0-15.296 6.848-15.296 15.296 0 0 0 0 0 0v0c0 8.448 6.848 15.296 15.296 15.296 0 0 0 0 0 0v0c8.448-0 15.296-6.848 15.296-15.296v-0c0-0 0-0 0-0 0-8.448-6.848-15.296-15.296-15.296v0zM16 1.544c8.047 0 14.57 6.126 14.57 13.684 0 0 0 0 0 0v0c0 0 0 0 0 0 0 7.557-6.523 13.684-14.57 13.684v0c-0 0-0 0-0 0-8.047 0-14.57-6.126-14.57-13.684v0c0 0 0 0 0 0 0-7.557 6.523-13.684 14.57-13.684 0 0 0 0 0 0h0z"></path>
<path fill="param(fill) #FFF" style="fill: param(fill) #FFF" d="M9.84 7.386c-0.507-0.011-0.82 0.176-1.125 0.456-0.215 0.197-0.315 0.357-0.328 0.612-0.015 0.313 0.168 0.539 0.168 0.539l5.66 7-5.667 7.042c0 0-0.311 0.396-0.069 0.929 0.118 0.26 0.381 0.463 0.655 0.543 0.331 0.096 0.883 0.162 1.308 0.046 0.474-0.13 0.731-0.381 0.731-0.381l4.827-5.97 4.827 5.97c0 0 0.257 0.252 0.731 0.381 0.425 0.116 0.977 0.049 1.308-0.046 0.274-0.079 0.537-0.283 0.655-0.543 0.242-0.532-0.069-0.929-0.069-0.929l-5.667-7.042 5.66-7c0 0 0.183-0.226 0.168-0.539-0.012-0.255-0.113-0.415-0.328-0.612-0.407-0.374-0.827-0.582-1.704-0.375-0.542 0.128-0.976 0.585-0.976 0.585l-4.605 5.723-4.605-5.723c0 0-0.434-0.457-0.976-0.585-0.219-0.052-0.41-0.077-0.579-0.081z"></path>
</symbol>
<symbol id="icon-filter" viewBox="0 0 32 32">
<title>filter</title>
<path fill="param(fill) #FFF" style="fill: param(fill) #FFF" d="M16 0.4c-6.602 0-10.439 1.034-12.646 2.096-1.104 0.531-1.8 1.070-2.223 1.486s-0.592 0.747-0.592 0.747l-0.038 0.078v3.887l0.109 0.11 11.168 11.235 0.068 9.851 0.1 0.107c0 0 1.504 1.605 4.055 1.605 1.437 0 2.457-0.394 3.114-0.798s0.974-0.846 0.974-0.846l0.069-0.098-0.067-9.821 11.41-11.41v-3.687l-0.040-0.079c0 0-0.174-0.335-0.606-0.763s-1.138-0.984-2.25-1.532c-2.223-1.096-6.062-2.166-12.604-2.166zM16 1.149c6.46 0 10.183 1.058 12.272 2.088 1.044 0.515 1.681 1.023 2.054 1.392 0.293 0.29 0.387 0.439 0.424 0.504v3.183l-11.412 11.412 0.067 9.875c-0.071 0.088-0.246 0.291-0.684 0.561-0.549 0.338-1.42 0.687-2.721 0.687-2.002 0-3.169-1.042-3.408-1.275l-0.068-9.849-11.275-11.342v-3.388c0.035-0.062 0.123-0.202 0.406-0.48 0.362-0.356 0.986-0.847 2.023-1.345 2.073-0.997 5.798-2.022 12.322-2.022z"></path>
<path fill="param(fill) #FFF" style="fill: param(fill) #FFF" d="M15.944 5.487c-0.684 0-1.334 0.012-1.952 0.033s-1.205 0.052-1.762 0.092c-0.557 0.040-1.083 0.088-1.581 0.143s-0.967 0.118-1.409 0.186-0.857 0.143-1.246 0.221c-0.389 0.078-0.753 0.161-1.092 0.247-0.493 0.125-0.878 0.258-1.259 0.386l-0.909 0.304 0.91 0.304c2.027 0.678 5.215 1.303 10.302 1.303s8.276-0.625 10.302-1.303l0.91-0.304-0.909-0.304c-0.381-0.128-0.766-0.261-1.259-0.386-0.34-0.086-0.703-0.169-1.092-0.247s-0.804-0.153-1.246-0.221c-0.442-0.068-0.912-0.131-1.409-0.186s-1.024-0.104-1.581-0.143c-0.557-0.040-1.144-0.071-1.762-0.092s-1.269-0.033-1.953-0.033zM15.944 6.128c0.676 0 1.319 0.011 1.93 0.032s1.19 0.052 1.739 0.091c0.549 0.039 1.066 0.087 1.556 0.141s0.949 0.116 1.382 0.183 0.838 0.14 1.217 0.216c0.379 0.077 0.733 0.157 1.062 0.24 0.067 0.017 0.112 0.037 0.175 0.054-1.967 0.531-4.799 0.979-9.061 0.979s-7.094-0.448-9.061-0.979c0.063-0.017 0.108-0.037 0.175-0.054 0.329-0.083 0.682-0.164 1.062-0.24s0.785-0.149 1.217-0.216c0.433-0.067 0.893-0.128 1.382-0.183s1.007-0.102 1.556-0.141c0.549-0.039 1.128-0.070 1.739-0.091s1.254-0.032 1.93-0.032z"></path>
<path fill="param(fill) #FFF" style="fill: param(fill) #FFF" d="M15.944 2.293c-5.468 0-8.811 0.724-10.803 1.463-0.996 0.369-1.653 0.742-2.067 1.029s-0.602 0.512-0.602 0.512l-0.169 0.209 0.176 0.204c0 0 0.223 0.25 0.715 0.57s1.273 0.731 2.448 1.124l0.102 0.034 0.102-0.034c0.386-0.129 0.748-0.255 1.212-0.372 0.329-0.083 0.682-0.164 1.062-0.24s0.785-0.149 1.217-0.216c0.433-0.067 0.893-0.128 1.382-0.183s1.007-0.102 1.556-0.141c0.549-0.039 1.128-0.070 1.739-0.091s1.254-0.032 1.93-0.032 1.319 0.011 1.93 0.032c0.611 0.021 1.19 0.052 1.739 0.091s1.066 0.087 1.556 0.141c0.489 0.054 0.949 0.116 1.382 0.183s0.838 0.14 1.217 0.216c0.379 0.077 0.733 0.157 1.062 0.24 0.464 0.117 0.827 0.243 1.212 0.372l0.102 0.034 0.102-0.034c1.176-0.393 1.956-0.805 2.448-1.124s0.715-0.57 0.715-0.57l0.176-0.204-0.169-0.209c0 0-0.189-0.225-0.602-0.512s-1.071-0.66-2.067-1.029c-1.991-0.738-5.334-1.463-10.803-1.463zM15.944 2.935c5.412 0 8.68 0.718 10.58 1.423 0.95 0.352 1.558 0.701 1.924 0.955 0.115 0.080 0.166 0.126 0.234 0.182-0.088 0.071-0.173 0.14-0.337 0.247-0.429 0.279-1.144 0.652-2.214 1.018-0.348-0.117-0.696-0.238-1.144-0.351-0.34-0.086-0.703-0.169-1.092-0.247s-0.804-0.153-1.246-0.221c-0.442-0.068-0.912-0.131-1.409-0.186s-1.024-0.104-1.581-0.143c-0.557-0.040-1.144-0.071-1.762-0.092s-1.269-0.033-1.953-0.033-1.334 0.012-1.952 0.033c-0.619 0.021-1.205 0.052-1.762 0.092s-1.083 0.088-1.581 0.143c-0.498 0.055-0.967 0.118-1.409 0.186s-0.857 0.143-1.246 0.221c-0.389 0.078-0.753 0.161-1.092 0.247-0.448 0.113-0.796 0.234-1.144 0.351-1.069-0.366-1.785-0.74-2.214-1.018-0.164-0.106-0.248-0.176-0.337-0.247 0.068-0.056 0.119-0.103 0.234-0.182 0.366-0.254 0.974-0.602 1.924-0.955 1.9-0.704 5.168-1.423 10.579-1.423z"></path>
<path fill="param(fill) #FFF" style="fill: param(fill) #FFF" d="M30.904 8.238c0 0-0.914 0.872-3.255 1.782s-6.081 1.832-11.65 1.844c-5.569 0.012-9.309-0.893-11.65-1.793s-3.255-1.767-3.255-1.767l-0.439 0.468c0 0 1.044 0.968 3.463 1.897s6.242 1.848 11.881 1.835c5.64-0.012 9.462-0.947 11.881-1.888s3.463-1.913 3.463-1.913z"></path>
<path fill="param(fill) #FFF" style="fill: param(fill) #FFF" d="M6.395 13.835l-0.096 0.417c0 0 2.733 0.628 4.138 0.811 1.4 0.182 4.135 0.313 4.135 0.313l0.020-0.428c0 0-2.745-0.133-4.1-0.31-1.35-0.176-4.097-0.804-4.097-0.804z"></path>
<path fill="param(fill) #FFF" style="fill: param(fill) #FFF" d="M26.144 7.1c-0.383-0.128-0.757-0.258-1.236-0.379-0.334-0.085-0.693-0.166-1.077-0.244s-0.794-0.151-1.232-0.219c-0.437-0.068-0.902-0.13-1.396-0.184s-1.016-0.103-1.568-0.142c-0.553-0.039-1.136-0.070-1.751-0.092s-1.262-0.033-1.941-0.033c-0.68 0-1.326 0.011-1.941 0.033s-1.198 0.052-1.751 0.092c-0.553 0.039-1.075 0.087-1.568 0.142s-0.958 0.117-1.396 0.184c-0.437 0.068-0.847 0.141-1.232 0.219s-0.743 0.159-1.077 0.244c-0.479 0.121-0.852 0.251-1.236 0.379 1.987 0.664 5.139 1.286 10.2 1.286s8.214-0.622 10.201-1.286z"></path>
</symbol>
<symbol id="icon-pin" viewBox="0 0 32 32">
<title>pin</title>
<path fill="param(fill) #FFF" style="fill: param(fill) #FFF" d="M21.85 0.966c-0.322-0.005-0.53 0.043-0.617 0.071-0.656 0.205-1.196 0.787-1.539 1.628-0.305 0.746-0.137 1.585 0.014 2.324 0.062 0.306 0.232 0.709 0.385 1.044 0.134 0.291 0.225 0.463 0.255 0.52-0.106 0.093-1.848 1.628-2.753 2.543-0.907 0.917-2.581 2.853-2.679 2.966-0.223-0.132-2.651-1.523-5.032-0.951-0.708 0.17-1.622 0.685-2.37 1.158s-1.326 0.905-1.326 0.905l-0.017 0.013-0.011 0.018c0 0-0.138 0.229-0.242 0.644s-0.18 1.024-0.071 1.805c0.219 1.561 1.179 3.805 4.105 6.572s5.182 3.549 6.716 3.629c0.767 0.040 1.352-0.096 1.746-0.244s0.604-0.312 0.604-0.312l0.003-0.003 0.003-0.003c0 0 1.96-1.812 2.001-4.717 0.010-0.708-0.301-1.672-0.61-2.472-0.283-0.732-0.541-1.265-0.587-1.36 0.091-0.094 2.012-2.086 2.86-3.054 0.84-0.96 2.149-2.625 2.233-2.731 0.204 0.082 1.568 0.617 2.831 0.646 1.777 0.042 2.599-1.56 2.611-1.585 0.003-0.005 0.078-0.123 0.12-0.34 0.043-0.222 0.055-0.555-0.052-1.007-0.214-0.904-0.905-2.285-2.794-4.25-2.834-2.949-4.823-3.438-5.788-3.452zM21.844 1.185c0.897 0.011 2.829 0.465 5.636 3.385 1.872 1.948 2.537 3.299 2.738 4.148 0.101 0.425 0.086 0.724 0.050 0.915s-0.088 0.262-0.088 0.262l-0.004 0.006-0.003 0.006c0 0-0.759 1.512-2.415 1.472-1.299-0.031-2.83-0.66-2.83-0.66l-0.077-0.032-0.052 0.066c0 0-1.418 1.806-2.276 2.786s-2.905 3.101-2.905 3.101l-0.054 0.056 0.034 0.070c0 0 0.307 0.622 0.612 1.412s0.604 1.751 0.595 2.39c-0.039 2.8-1.917 4.546-1.927 4.555-0.004 0.003-0.178 0.14-0.542 0.277-0.369 0.138-0.922 0.269-1.657 0.231-1.471-0.076-3.676-0.827-6.576-3.569s-3.827-4.94-4.038-6.443c-0.106-0.751-0.032-1.33 0.066-1.72 0.093-0.368 0.196-0.546 0.209-0.566 0.029-0.022 0.571-0.425 1.292-0.88 0.74-0.468 1.654-0.974 2.304-1.13 2.373-0.57 4.949 0.97 4.949 0.97l0.080 0.048 0.061-0.070c0 0 1.808-2.092 2.727-3.021s2.805-2.589 2.805-2.589l0.065-0.057-0.041-0.077c0 0-0.137-0.258-0.288-0.586s-0.316-0.731-0.37-0.995c-0.15-0.737-0.297-1.532-0.026-2.196 0.326-0.798 0.826-1.321 1.401-1.501 0.063-0.020 0.247-0.065 0.545-0.061z"></path>
<path fill="param(fill) #FFF" style="fill: param(fill) #FFF" d="M20.575 6.516l-0.182 0.123c0 0 0.987 1.465 1.744 2.206 0.759 0.744 2.688 2.068 2.688 2.068l0.125-0.181c0 0-1.94-1.34-2.658-2.044-0.721-0.706-1.715-2.172-1.715-2.172z"></path>
<path fill="param(fill) #FFF" style="fill: param(fill) #FFF" d="M21.062 1.104c0 0-0.197 0.482-0.125 1.269s0.407 1.891 1.443 3.165c1.205 1.482 2.58 2.721 4.363 3.804 0.544 0.33 1.701 0.841 2.357 0.918 0.631 0.074 1.005-0.152 1.198-0.403s0.217-0.524 0.217-0.524l-0.219-0.020c0 0-0.020 0.212-0.172 0.409s-0.425 0.385-0.998 0.318c-0.568-0.067-1.76-0.579-2.268-0.888-1.763-1.070-3.115-2.29-4.307-3.755-1.012-1.244-1.327-2.301-1.394-3.046s0.11-1.165 0.11-1.165z"></path>
<path fill="param(fill) #FFF" style="fill: param(fill) #FFF" d="M14.869 12.116l-0.741 0.657-0.004 0.005c0 0-0.062 0.073-0.106 0.201s-0.077 0.32-0.046 0.582c0.060 0.523 0.368 1.322 1.331 2.487 0.588 0.712 1.398 1.278 2.273 1.577 0.527 0.18 1.022 0.116 1.022 0.116l0.033-0.004 0.607-0.52 0.529-0.412-0.135-0.174-0.533 0.415-0.557 0.477c-0.043 0.005-0.446 0.046-0.895-0.107-0.833-0.284-1.613-0.829-2.174-1.509-0.946-1.145-1.229-1.909-1.282-2.372-0.027-0.232 0.003-0.388 0.036-0.485 0.033-0.096 0.060-0.123 0.061-0.124l0.728-0.646z"></path>
<path fill="param(fill) #FFF" style="fill: param(fill) #FFF" d="M9.099 21.269c0 0-2.548 2.701-3.741 4.13-1.393 1.669-2.541 3.007-3.716 4.941-0.061 0.101-0.094 0.245-0.116 0.37s-0.032 0.228-0.032 0.228l-0.009 0.096 0.093-0.027c0 0 0.304-0.083 0.46-0.173 1.737-0.999 3.245-2.498 4.681-3.83 1.416-1.313 4.144-4.13 4.144-4.13l-0.095-0.092c0 0-2.73 2.819-4.139 4.125-1.439 1.334-2.941 2.826-4.657 3.813-0.084 0.049-0.234 0.098-0.332 0.129 0.005-0.040 0.005-0.052 0.016-0.115 0.022-0.119 0.059-0.259 0.099-0.325 1.169-1.925 2.311-3.255 3.705-4.925 1.186-1.421 3.735-4.124 3.735-4.124z"></path>
<path fill="param(fill) #FFF" style="fill: param(fill) #FFF" d="M1.656 30.514c0 0 2.826-3.251 4.265-4.854 1.198-1.336 3.636-3.97 3.636-3.97l-0.41-0.376c0 0-2.771 2.862-4.051 4.385-2.739 3.259-3.439 4.815-3.439 4.815z"></path>
<path fill="param(fill) #FFF" style="fill: param(fill) #FFF" d="M10.323 22.339l-4.324 4.481-4.088 3.734-0.352 0.391 0.431-0.16c0 0 1.365-0.668 3.773-2.974 1.711-1.639 5.039-4.969 5.039-4.969z"></path>
<path fill="param(fill) #FFF" style="fill: param(fill) #FFF" d="M16.671 16.6c0 0 2.37-2.347 3.538-3.538 1.057-1.078 3.14-3.264 3.14-3.264l1.272 0.837c0 0-1.753 2.275-2.722 3.331-1.085 1.182-3.452 3.355-3.452 3.355s-0.376-0.005-0.86-0.18c-0.462-0.167-0.916-0.541-0.916-0.541z"></path>
<path fill="param(fill) #FFF" style="fill: param(fill) #FFF" d="M24.322 10.096c0 0 0.348 0.257 0.887 0.49s1.228 0.434 1.673 0.502c0.752 0.116 0.96 0.205 1.974-0.112 0.267-0.083 0.724-0.541 0.724-0.541s-0.614 0.11-1.365-0.183c-0.559-0.218-1.035-0.327-1.545-0.621-0.376-0.217-1.153-0.713-1.153-0.713z"></path>
<path fill="param(fill) #FFF" style="fill: param(fill) #FFF" d="M19.553 17.309c0 0 0.577 1.394 0.806 2.112 0.16 0.502 0.185 0.913 0.183 1.272-0.005 0.807-0.142 1.341-0.449 2.087-0.292 0.708-0.69 1.558-1.282 2.044-0.322 0.264-0.778 0.385-1.187 0.464-0.427 0.083-0.876 0.093-1.306 0.028-0.724-0.11-1.465-0.336-2.122-0.66-0.482-0.238-0.917-0.561-0.917-0.561s0.162-1.546 0.399-2.281c0.268-0.832 0.533-1.733 1.14-2.362 0.771-0.8 2.946-1.556 2.946-1.556s0.293 0.093 0.445 0.111c0.147 0.018 0.445 0 0.445 0z"></path>
</symbol>
<symbol id="icon-navigation" viewBox="0 0 32 32">
<title>navigation</title>
<path fill="param(fill) #FFF" style="fill: param(fill) #FFF" d="M16 0.607c-8.494 0-15.393 6.899-15.393 15.393s6.899 15.393 15.393 15.393c8.494 0 15.393-6.899 15.393-15.393s-6.899-15.393-15.393-15.393zM16 1.894c7.798 0 14.106 6.308 14.106 14.106s-6.308 14.106-14.106 14.106c-7.798 0-14.106-6.308-14.106-14.106s6.308-14.106 14.106-14.106z"></path>
<path fill="param(fill) #FFF" style="fill: param(fill) #FFF" d="M24.904 7.214l-13.603 13.603 4.316 7.012 4.46-9.899zM23.372 9.464l-7.82 17.357-3.634-5.904z"></path>
<path fill="param(fill) #FFF" style="fill: param(fill) #FFF" d="M24.743 7.053l-20.615 9.287 7.012 4.316zM22.516 8.608l-11.453 11.453-5.904-3.634 8.334-3.755z"></path>
<path fill="param(fill) #FFF" style="fill: param(fill) #FFF" d="M11.037 20.921l-7.037-4.452 6.148 5.341 5.341 6.148-2.226-3.519z"></path>
<path fill="param(fill) #FFF" style="fill: param(fill) #FFF" d="M22.381 10.861l-6.866 15.24-3.19-5.184z"></path>
</symbol>
  </defs>
</svg>